<?xml version="1.0" encoding="utf-8"?>
<!-- Generator: Adobe Illustrator 24.3.0, SVG Export Plug-In . SVG Version: 6.00 Build 0)  -->
<svg version="1.1" id="Layer_1" xmlns="http://www.w3.org/2000/svg" xmlns:xlink="http://www.w3.org/1999/xlink" x="0px" y="0px"
	 viewBox="0 0 841.9 841.9" style="enable-background:new 0 0 841.9 841.9;" xml:space="preserve">
<style type="text/css">
	.st0{fill:#354DA1;stroke:#000000;stroke-width:0.75;stroke-miterlimit:10;}
	.st1{fill:#414042;}
	.st2{fill:#B2E1C4;stroke:#231F20;stroke-width:4;stroke-miterlimit:10;}
	.st3{fill:#F0FFDD;}
	.st4{fill:none;}
	.st5{fill:#333333;stroke:#000000;stroke-width:4;stroke-miterlimit:10;}
	.st6{opacity:0.6;fill:#231F20;}
	.st7{opacity:0.6;fill:#231F20;stroke:#000000;stroke-width:0.75;stroke-miterlimit:10;}
	.st8{fill:#FFFFFF;stroke:#000000;stroke-width:4;stroke-miterlimit:10;}
	.st9{fill:#FFFC13;stroke:#231F20;stroke-width:4;stroke-miterlimit:10;}
	.st10{fill:#C0C0C0;stroke:#000000;stroke-width:2;stroke-miterlimit:10;}
	.st11{fill:#354DA1;stroke:#000000;stroke-width:4;stroke-miterlimit:10;}
	.st12{fill:#04CEB4;stroke:#231F20;stroke-width:4;stroke-miterlimit:10;}
	.st13{fill:#04CEB4;stroke:#000000;stroke-width:4;stroke-miterlimit:10;}
	.st14{fill:none;stroke:#000000;stroke-width:4;stroke-miterlimit:10;}
</style>
<rect x="0.9" y="-2.4" class="st0" width="843.4" height="844.7"/>
<image style="display:none;overflow:visible;enable-background:new    ;" width="450" height="950" xlink:href="../../../../Downloads/254137875_571096570663065_1327983642435274809_n.jpg"  transform="matrix(1 0 0 1 267.25 -76.125)">
</image>
<path d="M861.3,146.3"/>
<g>
	<g>
		<path class="st1" d="M-537,208.4c3.2,0,3.2-5,0-5S-540.2,208.4-537,208.4L-537,208.4z"/>
	</g>
</g>
<g>
	<g>
		<path class="st1" d="M-537,208.4c3.2,0,3.2-5,0-5S-540.2,208.4-537,208.4L-537,208.4z"/>
	</g>
</g>
<path class="st2" d="M405.6,203.5c0.6-0.4,0.8-1.2,0.5-1.9s-1-1.1-1.7-1.2c-0.2,0-0.4,0-0.6,0.1c-0.1,0.1-0.1,0.3-0.1,0.5
	c0,0.8,0,1.7,0.6,2.3c0.6,0.6,1.8,0.6,1.9-0.2"/>
<path class="st2" d="M382.6,149.9c0.4-0.3,0.6-0.9,0.3-1.4c-0.2-0.5-0.8-0.9-1.3-0.9c-0.2,0-0.3,0-0.4,0.1s-0.1,0.2-0.1,0.4
	c0,0.6,0,1.2,0.5,1.7c0.4,0.5,1.4,0.5,1.4-0.1"/>
<path class="st2" d="M542.7,215.7c0.6-0.5,0.9-1.4,0.6-2.2s-1-1.2-1.8-1.3c-0.2,0-0.5,0-0.6,0.2s-0.2,0.4-0.2,0.6
	c-0.1,0.9-0.1,1.9,0.5,2.6s1.9,0.6,2.1-0.3"/>
<path class="st3" d="M473.8,227.8"/>
<path class="st3" d="M542.5,1119.4"/>
<path class="st4" d="M862.1,144.6"/>
<path class="st5" d="M46.6,562.3"/>
<polyline class="st6" points="131.1,617.5 415,737.8 408.3,834.2 446.6,843.7 842.9,841 842.9,713 421.2,735.8 415,737.8 
	131.1,617.5 "/>
<polygon class="st7" points="702.5,557.6 844.2,713 679.3,724.1 584.2,584.6 "/>
<path class="st8" d="M734.3,635.5L428.5,513.6c-2.2-0.9-4.6-0.9-6.9-0.2L138,607.9c-4.1,1.4-6.9,5.2-6.9,9.5v73.4
	c0,11.3,6.3,21.6,16.4,26.7l256.7,115.8c1.3,0.6,2.7,0.9,4.1,0.9h0c4.5,0,9-0.7,13.3-2.2l294-99.5c11.7-4.4,19.5-15.6,19.5-28.1
	v-68.3C735.1,635.7,734.7,635.4,734.3,635.5z"/>
<polygon class="st9" points="162.5,533.3 412.9,646.1 700.4,556.7 422.5,432.9 "/>
<path class="st10" d="M427.5,101c19.9,4.7,30.9,21.5,32.2,23.3c10.2,16.1,8.3,33.3,7.1,44.9c-2.6,23.7-13.7,40.6-20.1,48.9
	l-13.3,8.9l-0.4,11.8l-16.1,254.5c12.2-6.1,24.3-12.1,36.5-18.2l6.1-0.2l-0.2-10c0.8-9,2.4-22.4,6-38.3c2-8.8,6.8-27.3,26.2-70.3
	c13.7-30.3,21.2-47.1,35.1-70c9.1-15,22.5-36.9,44.2-61.3c12.9-14.5,25.1-25.7,30.6-30.8c10.1-9.3,20-17.6,29.6-25L618.4,26.5
	L423.8,2.9l-34.4-1l-197.1,30l-5.2,138.8c9.6,7.4,19.5,15.8,29.6,25c5.5,5.1,17.7,16.3,30.6,30.8c21.8,24.4,35.2,46.3,44.2,61.3
	c13.9,22.9,21.4,39.7,35.1,70c19.4,43,24.2,61.5,26.2,70.3c3.7,15.9,5.3,29.2,6,38.3l-0.2,10l6.1,0.2c12.2,6.1,24.3,12.1,36.5,18.2
	l-16.1-254.5l-0.4-11.8c-9.2-3.1-16-7.3-20.4-10.5c-4.5-3.2-9.6-6.9-14.4-13.5c-1.3-1.9-5.3-7.4-8.3-16.9c-3-9.2-9.1-28.6-1.1-49
	c9.5-23.9,29.9-35.9,34.2-37.3c9.1-3,26.2-6.3,31.5-6.1"/>
<path class="st11" d="M409.2,245.3h-24.8c-45.3,0-82.3-37-82.3-82.3v-11.5c0-45.3,37-82.3,82.3-82.3h24.8c45.3,0,82.3,37,82.3,82.3
	V163C491.5,208.2,454.5,245.3,409.2,245.3z"/>
<path class="st12" d="M387.4,207.5c0.4,0.2,0.7,0.5,1,0.8c0.6,1-0.5,2-1.3,2.8c-2.5,2.4-2.5,6.5-2.4,10.1c0,1.5,0.1,3,0.8,4.4
	c0.9,1.8,2.8,2.9,4.4,4.2c2.4,1.9,4.6,4.2,6.2,6.8c0.4,0.7,0.9,1.6,0.4,2.3c-0.4,0.6-1.4,0.5-2.1,0.4c-4.1-0.7-8.7-0.6-11.5,2.1
	c-1.7,1.6-3.2,4.4-5.7,3.9c-1.7-0.3-2.8-2-3.2-3.6c-0.5-1.6-0.5-3.3-1.1-4.9c-0.6-1.6-2.1-3.1-3.7-3c-0.5,1.6-1,3.2-2.3,4.2
	s-3.6,0.8-4.4-0.8c0.2-2.5,0.8-5,1.6-7.3c-1.7-2.1-3.4-4.2-5.1-6.4c-0.5-0.7-1.1-1.3-1.3-2.1c-0.2-0.8,0.1-1.9,0.6-2.5
	c2.5-3.2,5.1-5.6,7.2-7.3c4.1-3.3,7.7-4.9,8.7-5.4c2.8-1.3,5.3-2,7.2-2.5C383,204.2,385.8,206.5,387.4,207.5z"/>
<path class="st13" d="M427.7,128.9c-1.1,6.9-4.5,13.3-9.6,17.9c-1.4,1.2-2.9,2.3-3.9,3.9c-1.1,1.7-1.5,3.7-2.4,5.6
	c-2.4,5.7-7.7,9.4-12.7,13.2c-0.6,0.4-1,0.8-1,1.5c0,0.5,0.6,0.9,1,1.3c2.4,2,4.7,4,7.3,6c4.2-4.1,8.5-8.1,12.7-12.2
	c2.5,1.2,4,3.9,4.6,6.4c0.1,0.5,0.1,1.2,0.1,1.7l-32.9,20.2l-7.5,4.5c0.6,0.5,1.1,0.8,1.8,1.1c4.3,3.5,10.7,2.3,16.5,3.6
	c4.2,0.9,8.2,2.5,12,4.6c1,0.5,1.8,1.1,2.9,1.1c1,0,1.8-0.8,2.7-1.5c4.2-3.5,10.7-3.9,16-1.2c2.2-3.1,6.6-4,10.3-5.3
	c3.8-1.3,7.4-3.3,10.5-5.8c2.8-2.3,5.2-5,8.4-6.9c2.1-1.3,4.5-2.1,6.7-3.3c5.7-3.1,9.6-8.4,13.1-13.5c2.7-4,5.2-8.1,6-12.9
	c0.4-2.1,0.4-4.4,0.6-6.5c0.4-5.6,0.6-12.1,2.1-17.4c-1.5-0.8-2.5,0.1-4-0.7l-1.5,0.9c-4.6,0.3-9.3-0.8-13.4-3.3
	c7.3,4.4-5.6,27.2-8.8-13.2c-0.1-2.4,0.3-4.8-0.3-7.2c-0.8-3.3-3.6-6.1-5.4-9.3c-2-3.3-2.8-7.2-2.2-10.9c-2.7,0.3-5.7,0.8-6.6,3.2
	c-0.3,0.8-0.3,1.7-0.4,2.7c-0.3,1.3-0.8,2.7-1.5,3.9c-1.8,3.5-3.8,6.9-5.6,10.4c-1.3,2.3-2.9,4.9-5.7,5.4c-1,0.1-1.8,0-2.8,0.1
	c-2.5,0.4-4.3,2.4-5.2,4.6C428.1,124,428,126.5,427.7,128.9z"/>
<path class="st13" d="M318.5,119.9c-5.4,8.8-11,17.5-12.9,27c-0.5,3.4-0.8,6.7,0,10.3c0.5,2.4,1.6,5,1.9,7.5
	c0.3,4.3-1.9,8.8-0.3,13.1c1.3,3.7,5.6,7.1,7.2,10.8c1.6,3.4,1.1,6.9,1.6,10.3c0.8,5.2,2.4,10.6,7.8,14.5c8.3,1.7,16.6-2.2,20.4-7.3
	c3.7-5,4-11.2,4.6-17.2c0-1.5,0.3-3,1.6-4.3c1.1-0.9,2.7-1.5,4.3-2.1c2.9-0.9,5.9-2.1,8.8-3c4.6-1.5,9.1-3.2,12.3-5.6
	c3.5-2.4,5.6-6,4.6-9.5c-5.1-3.4-12.3-2.8-19-3c-7.2-0.2-14.5-3.2-19.8-6.9c-2.1-1.5-4-3.2-5.6-4.8c-3.2-3.5-5.6-7.5-8-11.4
	c-2.1-3.7-4.3-7.5-4-11.4c0.3-2.1,1.3-4.1,1.9-6.2c1.1-3.7,0.3-7.8-0.8-11.7C322.2,113.5,321.1,115.8,318.5,119.9z"/>
<path class="st12" d="M378.4,75.8c0.4,0.2,0.7,0.5,1,0.8c0.6,1-0.5,2-1.3,2.8c-2.5,2.4-2.5,6.5-2.4,10.1c0,1.5,0.1,3,0.8,4.4
	c0.9,1.8,2.8,2.9,4.4,4.2c2.4,1.9,4.6,4.2,6.2,6.8c0.4,0.7,0.9,1.6,0.4,2.3c-0.4,0.6-1.4,0.5-2.1,0.4c-4.1-0.7-8.7-0.6-11.5,2.1
	c-1.7,1.6-3.2,4.4-5.7,3.9c-1.7-0.3-2.8-2-3.2-3.6c-0.5-1.6-0.5-3.3-1.1-4.9s-2.1-3.1-3.7-3c-0.5,1.6-1,3.2-2.3,4.2
	s-3.6,0.8-4.4-0.8c0.2-2.5,0.8-5,1.6-7.3c-1.7-2.1-3.4-4.2-5.1-6.4c-0.5-0.7-1.1-1.3-1.3-2.1s0.1-1.9,0.6-2.5
	c2.5-3.2,5.1-5.6,7.2-7.3c4.1-3.3,7.7-4.9,8.7-5.4c2.8-1.3,5.3-2,7.2-2.5C373.9,72.5,376.7,74.9,378.4,75.8z"/>
<polyline class="st14" points="734.3,635.5 415,737.8 131.1,617.5 "/>
</svg>
