<?xml version="1.0" encoding="utf-8"?>
<!-- Generator: Adobe Illustrator 24.3.0, SVG Export Plug-In . SVG Version: 6.00 Build 0)  -->
<svg version="1.1" id="Layer_1" xmlns="http://www.w3.org/2000/svg" xmlns:xlink="http://www.w3.org/1999/xlink" x="0px" y="0px"
	 viewBox="0 0 841.9 841.9" style="enable-background:new 0 0 841.9 841.9;" xml:space="preserve">
<style type="text/css">
	.st0{fill:#414042;}
	.st1{fill:#04CEB4;stroke:#231F20;stroke-width:4;stroke-miterlimit:10;}
	.st2{fill:#B2E1C4;stroke:#231F20;stroke-width:4;stroke-miterlimit:10;}
	.st3{fill:#04CEB4;stroke:#000000;stroke-width:4;stroke-miterlimit:10;}
	.st4{fill:#00FF00;stroke:#231F20;stroke-width:4;stroke-miterlimit:10;}
	.st5{fill:#F0FFDD;}
	.st6{fill:none;}
	.st7{opacity:0.8;stroke:#000000;stroke-width:2;stroke-miterlimit:10;}
	.st8{fill:#333333;stroke:#000000;stroke-width:4;stroke-miterlimit:10;}
	.st9{fill:#3E8971;}
	.st10{fill:#8EC7A0;}
	.st11{fill:#FFFC13;stroke:#000000;stroke-miterlimit:10;}
	.st12{fill:#FBD315;stroke:#000000;stroke-miterlimit:10;}
	.st13{fill:#FFFE67;stroke:#000000;stroke-miterlimit:10;}
	.st14{fill:#FCEE21;stroke:#000000;stroke-miterlimit:10;}
	.st15{fill:#E2BA05;}
	.st16{stroke:#000000;stroke-width:2;stroke-miterlimit:10;}
</style>
<image style="display:none;overflow:visible;enable-background:new    ;" width="450" height="950" xlink:href="../../../../Downloads/254137875_571096570663065_1327983642435274809_n.jpg"  transform="matrix(1 0 0 1 267.25 -76.125)">
</image>
<path d="M861.3,146.3"/>
<g>
	<g>
		<path class="st0" d="M-537,208.4c3.2,0,3.2-5,0-5S-540.2,208.4-537,208.4L-537,208.4z"/>
	</g>
</g>
<g>
	<g>
		<path class="st0" d="M-537,208.4c3.2,0,3.2-5,0-5S-540.2,208.4-537,208.4L-537,208.4z"/>
	</g>
</g>
<path class="st1" d="M419.7,187.8c0.4,0.2,0.7,0.5,1,0.8c0.6,1-0.5,2-1.3,2.8c-2.5,2.4-2.5,6.5-2.4,10.1c0,1.5,0.1,3,0.8,4.4
	c0.9,1.8,2.8,2.9,4.4,4.2c2.4,1.9,4.6,4.2,6.2,6.8c0.4,0.7,0.9,1.6,0.4,2.3c-0.4,0.6-1.4,0.5-2.1,0.4c-4.1-0.7-8.7-0.6-11.5,2.1
	c-1.7,1.6-3.2,4.4-5.7,3.9c-1.7-0.3-2.8-2-3.2-3.6c-0.5-1.6-0.5-3.3-1.1-4.9c-0.6-1.6-2.1-3.1-3.7-3c-0.5,1.6-1,3.2-2.3,4.2
	c-1.3,1-3.6,0.8-4.4-0.8c0.2-2.5,0.8-5,1.6-7.3c-1.7-2.1-3.4-4.2-5.1-6.4c-0.5-0.7-1.1-1.3-1.3-2.1c-0.2-0.8,0.1-1.9,0.6-2.5
	c2.5-3.2,5.1-5.6,7.2-7.3c4.1-3.3,7.7-4.9,8.7-5.4c2.8-1.3,5.3-2,7.2-2.5C415.3,184.5,418.1,186.8,419.7,187.8z"/>
<path class="st2" d="M407.6,270.5c0.6-0.4,0.8-1.2,0.5-1.9s-1-1.1-1.7-1.2c-0.2,0-0.4,0-0.6,0.1c-0.1,0.1-0.1,0.3-0.1,0.5
	c0,0.8,0,1.7,0.6,2.3c0.6,0.6,1.8,0.6,1.9-0.2"/>
<path class="st3" d="M433,229.5c-0.8,5.2-3.2,10-6.9,13.5c-1,0.9-2.1,1.7-2.8,2.9c-0.8,1.3-1.1,2.8-1.7,4.2
	c-1.7,4.3-5.5,7.1-9.1,9.9c-0.4,0.3-0.7,0.6-0.7,1.1c0,0.4,0.4,0.7,0.7,1c1.7,1.5,3.4,3,5.2,4.5c3-3.1,6.1-6.1,9.1-9.2
	c1.8,0.9,2.9,2.9,3.3,4.8c0.1,0.4,0.1,0.9,0.1,1.3l-23.6,15.2l-5.4,3.4c0.4,0.4,0.8,0.6,1.3,0.8c3.1,2.6,7.7,1.7,11.8,2.7
	c3,0.7,5.9,1.9,8.6,3.5c0.7,0.4,1.3,0.8,2.1,0.8c0.7,0,1.3-0.6,1.9-1.1c3-2.6,7.7-2.9,11.5-0.9c1.6-2.3,4.7-3,7.4-4
	c2.7-1,5.3-2.5,7.5-4.4c2-1.7,3.7-3.8,6-5.2c1.5-1,3.2-1.6,4.8-2.5c4.1-2.3,6.9-6.3,9.4-10.2c1.9-3,3.7-6.1,4.3-9.7
	c0.3-1.6,0.3-3.3,0.4-4.9c0.3-4.2,0.4-9.1,1.5-13.1c-1.1-0.6-1.8,0.1-2.9-0.5l-1.1,0.7c-3.3,0.2-6.7-0.6-9.6-2.5
	c5.2,3.3-4,20.5-6.3-9.9c-0.1-1.8,0.2-3.6-0.2-5.4c-0.6-2.5-2.6-4.6-3.9-7c-1.4-2.5-2-5.4-1.6-8.2c-1.9,0.2-4.1,0.6-4.7,2.4
	c-0.2,0.6-0.2,1.3-0.3,2c-0.2,1-0.6,2-1.1,2.9c-1.3,2.6-2.7,5.2-4,7.8c-0.9,1.7-2.1,3.7-4.1,4.1c-0.7,0.1-1.3,0-2,0.1
	c-1.8,0.3-3.1,1.8-3.7,3.5C433.3,225.8,433.2,227.7,433,229.5z"/>
<path class="st4" d="M488.3,278.5c-2,4.7-4.1,9.4-4.8,14.5c-0.2,1.8-0.3,3.6,0,5.5c0.2,1.3,0.6,2.7,0.7,4c0.1,2.3-0.7,4.7-0.1,7
	c0.5,2,2.1,3.8,2.7,5.8c0.6,1.8,0.4,3.7,0.6,5.5c0.3,2.8,0.9,5.7,2.9,7.8c3.1,0.9,6.2-1.2,7.6-3.9c1.4-2.7,1.5-6,1.7-9.2
	c0-0.8,0.1-1.6,0.6-2.3c0.4-0.5,1-0.8,1.6-1.1c1.1-0.5,2.2-1.1,3.3-1.6c1.7-0.8,3.4-1.7,4.6-3c1.3-1.3,2.1-3.2,1.7-5.1
	c-1.9-1.8-4.6-1.5-7.1-1.6c-2.7-0.1-5.4-1.7-7.4-3.7c-0.8-0.8-1.5-1.7-2.1-2.6c-1.2-1.9-2.1-4-3-6.1c-0.8-2-1.6-4-1.5-6.1
	c0.1-1.1,0.5-2.2,0.7-3.3c0.4-2,0.1-4.2-0.3-6.3C489.7,275.1,489.3,276.3,488.3,278.5z"/>
<path class="st2" d="M384.6,216.9c0.4-0.3,0.6-0.9,0.3-1.4c-0.2-0.5-0.8-0.9-1.3-0.9c-0.2,0-0.3,0-0.4,0.1c-0.1,0.1-0.1,0.2-0.1,0.4
	c0,0.6,0,1.2,0.5,1.7c0.4,0.5,1.4,0.5,1.4-0.1"/>
<path class="st2" d="M544.7,282.7c0.6-0.5,0.9-1.4,0.6-2.2s-1-1.2-1.8-1.3c-0.2,0-0.5,0-0.6,0.2c-0.1,0.2-0.2,0.4-0.2,0.6
	c-0.1,0.9-0.1,1.9,0.5,2.6s1.9,0.6,2.1-0.3"/>
<path class="st5" d="M475.8,294.8"/>
<path class="st5" d="M542.5,1119.4"/>
<path class="st6" d="M862.1,144.6"/>
<path class="st7" d="M479.4,521.4l31.2,4.5c5.1-5.8,14.5-15.7,27.7-26.1c37.2-29.1,76.8-39.4,137.1-54.4c11.3-2.8,28.4-6.9,49.7-11
	l33.4-59.6l-24.7-54.8l-123.7,5.7l-69.9,52.4L479.4,521.4z"/>
<path class="st8" d="M46.6,562.3"/>
<path class="st9" d="M412.2,607.3c2.9-0.7,6.4-0.7,8.5,1.4c2.2,2.1,2.4,5.6,3.7,8.4c0.8,1.8,2.1,3.3,3.3,4.9
	c3.1,4.5,4.7,9.8,6.2,15.1c0.7,2.4,1.3,5.4-0.4,7.3c-0.8,0.9-1.9,1.3-3,1.8c-5.9,2.4-12.1,4.8-18.3,3.5c-3.6-0.8-6.9-2.8-9.2-5.8
	c-4.8-6.1-4.1-12.5-3.3-19.5c0.4-3.7-0.6-7.3,1.4-10.6C403.2,610.4,408.6,608.2,412.2,607.3z"/>
<polygon class="st10" points="557.1,556.2 589.7,570.5 558.4,606.6 547.5,583.5 536,571.9 552.3,551.5 "/>
<polygon class="st10" points="308.8,571.6 276.1,585.8 307.4,621.9 318.3,598.8 329.9,587.2 313.5,566.8 "/>
<path class="st11" d="M296.2,592c-7.9-2.5-17-6.1-19.3-14.1c-0.3-1.1-0.5-2.2-1.1-3.2c-2.7-4-9.5-0.4-13.6-3c-3.4-2.1-3-7.1-5-10.6
	c-1.8-3.2-5.6-4.9-7.3-8.1c-1.8-3.5-0.7-8.1-2.5-11.6c-2-3.8-6.6-5.1-10.7-6.4c-8.4-2.7-16.3-6.7-23.3-11.9c-4-3-9.2-6.5-13.6-4
	c-3.7,2.2-4,7.3-3.9,11.5c0.1,5.8,0.4,11.8,3.1,16.8c1,1.9,2.4,3.6,3.2,5.6c1.1,2.5,1.3,5.5,2.9,7.7c1.4,1.9,3.5,3,5.2,4.5
	c1.9,1.7,3.3,4,4.8,6.1c4.8,6.5,11.7,11.3,17.7,16.8s11.4,12.4,12,20.6l27.9,69.5l5.6,3.6l20.9-6.6c-1.7,8,1.3,17.4,3.9,25.2
	c1.7,5.3,3.5,10.6,5.2,15.9c1.6,4.8,3.2,9.7,6.1,13.9c5.6,8,15.2,12,24.3,15.6c6.9,2.7,15.1,5.4,21.4,1.6c4.2-2.6,6.6-8,5.5-12.8
	c-1.4-6.4-7.6-10.9-8.5-17.4c-0.3-2.2,0.1-4.4-0.5-6.5c-1-3.3-4.1-5.6-5.9-8.5c-3.7-5.8-2.1-13.5-4.8-19.8
	c-1.8-4.1-5.2-7.4-6.4-11.7c-1.2-4.5,0.2-9.7-2.3-13.6c-2.1-3.1-6-4.3-8.7-6.9c-5.6-5.3-4.3-14.2-4.6-21.8
	c-0.5-10.8-5.2-21.4-12.9-29.1C305.7,594.1,303.3,590.2,296.2,592z"/>
<path class="st12" d="M159.1,673.5c1.5,3.1,2,6.5,2.6,9.9c0.6,3.4,1.4,6.9,3.4,9.6c2.1,2.7,5.7,4.6,9,3.5c1.3-0.4,2.6-1.3,4-1.3
	c2.5,0.1,3.8,2.9,4.3,5.3c1,5.5,0.3,11.2,0.9,16.8c0.4,3.7,1.5,7.3,2.6,10.9c0.2,0.7,0.5,1.5,1,2.1c0.9,1.1,2.5,1.3,3.9,1.4
	c-0.5-3.4,1.1-7,4-9c1.4,4.8,2.1,9.8,2,14.8c2.2-0.8,4.8-0.1,6.6,1.4s3.1,3.6,3.9,5.8c1.1,2.8,2,6.1,4.7,7.4
	c1.2,0.6,2.5,0.7,3.7,1.4c1.2,0.6,2.1,2.1,1.4,3.2c1.1,0.2,1.7-1.2,2-2.3c1.3-5.7,2.8-11.4,4.6-17c2.4-7.3,5.3-14.6,10.5-20.2
	c0.3-0.4,0.7-0.7,0.9-1.2c0.6-1.3-0.4-2.8-1.1-4c-3.6-5.6-4.6-12.4-6.2-18.9c-2.7-11-7.2-21.6-13.2-31.1c-1.3-2-2.7-4.1-4.9-5.1
	c-2.7-1.2-5.9-0.4-8.9-0.6c-2.4-0.2-4.8-1-7.2-1.5c-2.3-0.5-4.6-0.6-6.9-0.5c-9.1,0.2-17.9,3.3-27,3.5c-2.2,0-4.6,0-6.5,1.2
	c-1.9,1.2-2.8,3.6-2.9,5.9c-0.1,2.8,0.6,6.1,0.8,8.9C153.6,673.9,156.4,673.6,159.1,673.5z"/>
<path class="st13" d="M147.5,667.5l-0.7-10.9l5.4-5.4l22.5,1.4l9.5-4.1l32-18.4l28.6-17l20.4-17.7l4.8,9.5l16.3,19.1l8.2,0.7
	l13.6,12.9l-10.2,12.2l-32,41.5l-23.1,32l-15.7,26.5v6.1c-4.8-9.3-9.9-19-14.7-28.2c-3.7-7.1-7.4-14.3-9.8-21.9
	c-0.6-2.1-1.2-4.3-2.7-5.9c-2.1-2.4-5.6-3-7.8-5.3c-3.3-3.5-2.7-9.7-6.7-12.4c-2.5-1.7-5.8-1.1-8.8-1.3c-3-0.1-6.6-1.6-6.8-4.6
	c-0.2-3.2,3.6-6.7,1.4-9.1c-0.6-0.6-1.4-0.9-2.2-1.1c-5-1.4-10.3-1.9-15.5-1.4c-0.5-1.3-4.2-3.3-5.3-2.5
	C148.2,663.6,147.5,666.2,147.5,667.5z"/>
<path class="st11" d="M578.8,567.5c7.9-2.5,17-6.1,19.3-14.1c0.3-1.1,0.5-2.2,1.1-3.2c2.7-4,9.5-0.4,13.6-3c3.4-2.1,3-7.1,5-10.6
	c1.8-3.2,5.6-4.9,7.3-8.1c1.8-3.5,0.7-8.1,2.5-11.6c2-3.8,6.6-5.1,10.7-6.4c8.4-2.7,16.3-6.7,23.3-11.9c4-3,9.2-6.5,13.6-4
	c3.7,2.2,4,7.3,3.9,11.5c-0.1,5.8-0.4,11.8-3.1,16.8c-1,1.9-2.4,3.6-3.2,5.6c-1.1,2.5-1.3,5.5-2.9,7.7c-1.4,1.9-3.5,3-5.2,4.5
	c-1.9,1.7-3.3,4-4.8,6.1c-4.8,6.5-11.7,11.3-17.7,16.8s-11.4,12.4-12,20.6l-27.9,69.5l-5.6,3.6l-20.9-6.6c1.7,8-1.3,17.4-3.9,25.2
	c-1.7,5.3-3.5,10.6-5.2,15.9c-1.6,4.8-3.2,9.7-6.1,13.9c-5.6,8-15.2,12-24.3,15.6c-6.9,2.7-15.1,5.4-21.4,1.6
	c-4.2-2.6-6.6-8-5.5-12.8c1.4-6.4,7.6-10.9,8.5-17.4c0.3-2.2-0.1-4.4,0.5-6.5c1-3.3,4.1-5.6,5.9-8.5c3.7-5.8,2.1-13.5,4.8-19.8
	c1.8-4.1,5.2-7.4,6.4-11.7c1.2-4.5-0.2-9.7,2.3-13.6c2.1-3.1,6-4.3,8.7-6.9c5.6-5.3,4.3-14.2,4.6-21.8c0.5-10.8,5.2-21.4,12.9-29.1
	C569.3,569.6,571.7,565.7,578.8,567.5z"/>
<path class="st12" d="M734.3,676.6c-1.5,3.1-2,6.5-2.6,9.9c-0.6,3.4-1.4,6.9-3.4,9.6c-2.1,2.7-5.7,4.6-9,3.5c-1.3-0.4-2.6-1.3-4-1.3
	c-2.5,0.1-3.8,2.9-4.3,5.3c-1,5.5-0.3,11.2-0.9,16.8c-0.4,3.7-1.5,7.3-2.6,10.9c-0.2,0.7-0.5,1.5-1,2.1c-0.9,1.1-2.5,1.3-3.9,1.4
	c0.5-3.4-1.1-7-4-9c-1.4,4.8-2.1,9.8-2,14.8c-2.2-0.8-4.8-0.1-6.6,1.4c-1.8,1.5-3.1,3.6-3.9,5.8c-1.1,2.8-2,6.1-4.7,7.4
	c-1.2,0.6-2.5,0.7-3.7,1.4c-1.2,0.6-2.1,2.1-1.4,3.2c-1.1,0.2-1.7-1.2-2-2.3c-1.3-5.7-2.8-11.4-4.6-17c-2.4-7.3-5.3-14.6-10.5-20.2
	c-0.3-0.4-0.7-0.7-0.9-1.2c-0.6-1.3,0.4-2.8,1.1-4c3.6-5.6,4.6-12.4,6.2-18.9c2.7-11,7.2-21.6,13.2-31.1c1.3-2,2.7-4.1,4.9-5.1
	c2.7-1.2,5.9-0.4,8.9-0.6c2.4-0.2,4.8-1,7.2-1.5c2.3-0.5,4.6-0.6,6.9-0.5c9.1,0.2,17.9,3.3,27,3.5c2.2,0,4.6,0,6.5,1.2
	c1.9,1.2,2.8,3.6,2.9,5.9c0.1,2.8-0.6,6.1-0.8,8.9C739.8,677,737,676.7,734.3,676.6z"/>
<path class="st13" d="M745.9,658.3l0.7-10.9l-5.4-5.4l-22.5,1.4l-9.5-4.1l-32-18.4l-28.6-17l-20.4-17.7l-4.8,9.5l-16.3,19.1
	l-8.2,0.7l-13.6,12.9l10.2,12.2l32,41.5l23.1,32l15.7,26.5v6.1c4.8-9.3,9.9-19,14.7-28.2c3.7-7.1,7.4-14.3,9.8-21.9
	c0.6-2.1,1.2-4.3,2.7-5.9c2.1-2.4,5.6-3,7.8-5.3c3.3-3.5,2.7-9.7,6.7-12.4c2.5-1.7,5.8-1.1,8.8-1.3c3-0.1,6.6-1.6,6.8-4.6
	c0.2-3.2-3.6-6.7-1.4-9.1c0.6-0.6,1.4-0.9,2.2-1.1c5-1.4,10.3-1.9,15.5-1.4c0.5-1.3,4.2-3.3,5.3-2.5
	C745.2,654.4,745.9,657,745.9,658.3z"/>
<path class="st14" d="M427.3,650.7l-108.2,4.4l-18,5.8l1,11.2l20.1,26.9l-23.1-0.7c-0.6,1.2-1.3,3-1.4,5.1
	c-0.3,12.6,22.3,22.2,31,25.9c11.8,5,34.4,12.2,67.4,7.8l14.6-6.5l107.2-12.6l1.4-4.4l11.6-8.2l9.5,6.8c1,0.3,5.6,1.3,9.9-1.4
	c4.3-2.7,6.6-8.1,5.8-13.6l-8.5-5.8l-25.2-0.7l-7.5-8.8l0.3-6.1c3.9,1.7,9.8,3.6,15.7,1.5c4.3-1.5,6.8-4.6,8.2-6.1
	c13-15.1,23.7-12.7,34.7-28.6c2.1-3.1,9.4-13.7,5.6-19.9c-1-1.6-2.4-2.5-3.6-3.1l-25.8,1.3l-58.2,16.6l-6.6-1l0.3-7.1l-14.8-13.8
	h-19.6l-9.4,14.5L427.3,650.7z"/>
<path class="st15" d="M415.1,829.5c4-4.7,11.6-2.6,17.3,0c3.2,1.4,6.4,2.8,9.6,4.3c1.2,0.5,2.4,1.1,3.7,0.8c4-0.8,3.3-7.5,6.6-9.8
	c2.3-1.6,6,0,6.4,2.7c3.3,2.2,8.6,0.4,9.8-3.4c0.8-2.6,0.2-6.1,2.5-7.6c1.1-0.7,2.5-0.7,3.8-0.6c6.8,0.4,13.6,0.9,20.4,1.3
	c1.1,0.1,2.4,0.1,3.3-0.5c1-0.7,1.5-2,2.6-2.6c1.1-0.6,2.4-0.3,3.6-0.3c4,0,7-4.1,7.2-8.1c0.1-2.8-0.8-5.7,0.1-8.4
	c0.8-2.7,4.9-4.5,6.4-2.1c-1.2,2.7-0.6,6,1.4,8.2c2,2.1,5.3,3,8,2c-1.2-4.1-0.5-8.7,1.8-12.2c0.6-0.9,1.3-1.8,1.6-2.9
	c0.8-3-1.8-5.6-4.1-7.6c-4.4-3.7-11-5.9-15-10c-5.1-5.2-8.3-12.2-14.2-16.5c-10.1-7.4-24.3-4.3-36.1,0.1
	c-9.8,3.6-19.7,8.2-26.4,16.2c-3.5,4.2-6.5,9.6-11.7,11.4c-1.7,0.6-3.6,0.7-5.3,1.4c-1.7,0.7-3.2,2.3-3,4.1c0.1,0.8,0.4,1.5,0.8,2.1
	C421.7,802.6,422.1,819.1,415.1,829.5z"/>
<path class="st14" d="M516.8,770.2c-16-18.7-32.4-43.3-43.2-74.5c-1.7-4.8-3.1-9.6-4.4-14.3c-6.1-2.2-33.5-11.6-54.8,2.7
	c-2.7,1.8-5.4,4.1-8.2,7.1c3.9,18.3,6,34.2,7.1,47c0.4,4.7,2.3,26.2,1,55.1c-0.6,14.7-1.9,27.2-3.1,36.7c-0.6-1.3,2.1-2.7,3.1-3.6
	c1-0.9,1.7-2,2.4-3.2c4.3-7.1,7.9-14.7,10.7-22.5c2.1,2.1,3,5.4,2.2,8.2c1.6,0.4,3.1,0.8,4.7,1.2c0.3-3.6,0.9-7.2,1.9-10.8
	c0.2-0.9,0.5-1.9,1.3-2.5c1-0.8,2.5-0.7,3.8-0.5c3.9,0.5,7.8,1,11.6,1.6c1.3-1.5,2.1-3.5,2.3-5.5c0.2-2.1-0.3-4.3,0.3-6.3
	c0.6-2,3.2-3.6,4.8-2.2c1.3,1.1,0.9,3.2,1.6,4.8c0.7,1.7,2.6,2.6,4.2,3.3c0.9,0.4,1.9,0.8,2.8,0.8c1.9,0,3.4-1.6,4.3-3.2
	c1.4-2.6,1.9-5.6,2.7-8.4c0.8-2.9,1.9-5.8,4.3-7.6c2.4-1.8,6.2-2,8,0.4c0.5,0.6,0.8,1.3,1.5,1.7c0.6,0.3,1.3,0.4,2,0.3
	c2.7,0,5.3,0,8-0.1c0.1,3.7,2.5,7,5.9,8.3s7.4,0.5,10-2.1c0.3-0.5,0.8-1.1,1.7-1.4c1-0.4,1.7-0.3,2.7-0.5c0.9-0.2,1.9-0.8,1.8-1.8
	c3.1-0.1,6.1,2.4,6.5,5.6L516.8,770.2z"/>
<path class="st1" d="M379.7,228.1c0.4,0.2,0.7,0.5,1,0.8c0.6,1-0.5,2-1.3,2.8c-2.5,2.4-2.5,6.5-2.4,10.1c0,1.5,0.1,3,0.8,4.4
	c0.9,1.8,2.8,2.9,4.4,4.2c2.4,1.9,4.6,4.2,6.2,6.8c0.4,0.7,0.9,1.6,0.4,2.3c-0.4,0.6-1.4,0.5-2.1,0.4c-4.1-0.7-8.7-0.6-11.5,2.1
	c-1.7,1.6-3.2,4.4-5.7,3.9c-1.7-0.3-2.8-2-3.2-3.6c-0.5-1.6-0.5-3.3-1.1-4.9c-0.6-1.6-2.1-3.1-3.7-3c-0.5,1.6-1,3.2-2.3,4.2
	c-1.3,1-3.6,0.8-4.4-0.8c0.2-2.5,0.8-5,1.6-7.3c-1.7-2.1-3.4-4.2-5.1-6.4c-0.5-0.7-1.1-1.3-1.3-2.1s0.1-1.9,0.6-2.5
	c2.5-3.2,5.1-5.6,7.2-7.3c4.1-3.3,7.7-4.9,8.7-5.4c2.8-1.3,5.3-2,7.2-2.5C375.2,224.8,378,227.2,379.7,228.1z"/>
<path class="st16" d="M437.5,177.9c20.8,4.7,32.3,21.5,33.6,23.3c10.7,16.1,8.7,33.3,7.4,44.9c-2.7,23.7-14.3,40.6-21,48.9
	l-13.9,8.9l-0.4,11.8l-16.8,254.5c12.7-6.1,25.4-12.1,38.1-18.2l6.4-0.2l-0.2-10c0.8-9,2.5-22.4,6.3-38.3
	c2.1-8.8,7.1-27.3,27.4-70.3c14.3-30.3,22.2-47.1,36.7-70c9.5-15,23.5-36.9,46.2-61.3c13.5-14.5,26.2-25.7,32-30.8
	c10.6-9.3,20.9-17.6,30.9-25l-8.4-198.8l-218.3-6.7l-10.5,1.5l-218.3,6.7l-8.4,198.8c10,7.4,20.4,15.8,30.9,25
	c5.8,5.1,18.5,16.3,32,30.8c22.8,24.4,36.8,46.3,46.2,61.3c14.5,22.9,22.4,39.7,36.7,70c20.3,43,25.3,61.5,27.4,70.3
	c3.9,15.9,5.5,29.2,6.3,38.3l-0.2,10l6.4,0.2c12.7,6.1,25.4,12.1,38.1,18.2l-16.8-254.5l-0.4-11.8c-9.6-3.1-16.7-7.3-21.3-10.5
	c-4.7-3.2-10-6.9-15.1-13.5c-1.4-1.9-5.5-7.4-8.7-16.9c-3.1-9.2-9.5-28.6-1.1-49c9.9-23.9,31.2-35.9,35.7-37.3
	c9.5-3,27.4-6.3,32.9-6.1"/>
</svg>
