<?xml version="1.0" encoding="utf-8"?>
<!-- Generator: Adobe Illustrator 24.3.0, SVG Export Plug-In . SVG Version: 6.00 Build 0)  -->
<svg version="1.1" id="Layer_1" xmlns="http://www.w3.org/2000/svg" xmlns:xlink="http://www.w3.org/1999/xlink" x="0px" y="0px"
	 viewBox="0 0 841.9 841.9" style="enable-background:new 0 0 841.9 841.9;" xml:space="preserve">
<style type="text/css">
	.st0{fill:#2B3990;stroke:#2B3990;stroke-miterlimit:10;}
	.st1{fill:#2E3192;stroke:#2B3990;stroke-miterlimit:10;}
	.st2{fill:#2E3192;stroke:#2E3192;stroke-miterlimit:10;}
	.st3{fill:#FFFFFF;stroke:#2E3192;stroke-width:4;stroke-miterlimit:10;}
	.st4{fill:#414042;}
	.st5{fill:url(#SVGID_1_);stroke:#000000;stroke-miterlimit:10;}
	.st6{fill:url(#SVGID_2_);stroke:#000000;stroke-miterlimit:10;}
	.st7{fill:#04CEB4;stroke:#231F20;stroke-width:4;stroke-miterlimit:10;}
	.st8{fill:#B2E1C4;stroke:#231F20;stroke-width:4;stroke-miterlimit:10;}
	.st9{fill:#00A7E3;}
	.st10{fill:#F0FFDD;}
	.st11{fill:#F0FFDD;stroke:#FFFFFF;stroke-width:8;stroke-miterlimit:10;}
	.st12{fill:none;}
	.st13{fill:none;stroke:#F0FFDD;stroke-width:9;stroke-miterlimit:10;}
</style>
<image style="display:none;overflow:visible;enable-background:new    ;" width="450" height="950" xlink:href="../../../../Downloads/254137875_571096570663065_1327983642435274809_n.jpg"  transform="matrix(1 0 0 1 267.25 -76.125)">
</image>
<polygon class="st0" points="381.8,341.8 286.3,272.4 261.2,263.3 262.3,251.1 277.9,245 306.7,253.7 334.1,267.4 379.9,300 
	411.3,329.2 412.4,345.9 406.5,350.5 383.8,351.1 "/>
<polygon class="st1" points="480.1,283 384.4,213.4 359.5,204.5 360.6,192.3 376.2,186.2 404.8,194.9 432.4,208.6 478.2,241.2 
	509.6,270.4 510.7,287.1 504.8,291.7 481.9,292.3 "/>
<polygon class="st2" points="430.9,309.5 335.4,239.9 310.4,231 311.5,218.8 327.1,212.7 355.6,221.4 383.3,235.1 429.1,267.8 
	460.4,296.7 461.5,313.6 455.6,318.2 433,318.8 "/>
<path d="M627.5,131.5"/>
<path class="st3" d="M597,126.8"/>
<g>
	<g>
		<path class="st4" d="M-537,208.4c3.2,0,3.2-5,0-5S-540.2,208.4-537,208.4L-537,208.4z"/>
	</g>
</g>
<g>
	<g>
		<path class="st4" d="M-537,208.4c3.2,0,3.2-5,0-5S-540.2,208.4-537,208.4L-537,208.4z"/>
	</g>
</g>
<g>
	<radialGradient id="SVGID_1_" cx="400.329" cy="427.287" r="328.5064" gradientUnits="userSpaceOnUse">
		<stop  offset="0" style="stop-color:#2E3192"/>
		<stop  offset="0.4019" style="stop-color:#303393"/>
		<stop  offset="0.5467" style="stop-color:#373A97"/>
		<stop  offset="0.6499" style="stop-color:#42459D"/>
		<stop  offset="0.7334" style="stop-color:#5356A5"/>
		<stop  offset="0.8048" style="stop-color:#696BB1"/>
		<stop  offset="0.8681" style="stop-color:#8586BF"/>
		<stop  offset="0.9254" style="stop-color:#A5A6D0"/>
		<stop  offset="0.9763" style="stop-color:#C9CAE3"/>
		<stop  offset="1" style="stop-color:#DDDDED"/>
		<stop  offset="1" style="stop-color:#FFFFFF"/>
	</radialGradient>
	<ellipse class="st5" cx="400.3" cy="427.3" rx="331.1" ry="325.9"/>
	<radialGradient id="SVGID_2_" cx="399.5812" cy="426.825" r="330.7752" gradientUnits="userSpaceOnUse">
		<stop  offset="0" style="stop-color:#2E3192"/>
		<stop  offset="0.4019" style="stop-color:#303393"/>
		<stop  offset="0.5467" style="stop-color:#373A97"/>
		<stop  offset="0.6499" style="stop-color:#42459D"/>
		<stop  offset="0.7334" style="stop-color:#5356A5"/>
		<stop  offset="0.8048" style="stop-color:#696BB1"/>
		<stop  offset="0.8681" style="stop-color:#8586BF"/>
		<stop  offset="0.9254" style="stop-color:#A5A6D0"/>
		<stop  offset="0.9763" style="stop-color:#C9CAE3"/>
		<stop  offset="1" style="stop-color:#DDDDED"/>
		<stop  offset="1" style="stop-color:#FFFFFF"/>
	</radialGradient>
	<path class="st6" d="M731.8,427.3c0,43-8.5,86.1-25,125.9c-16.3,39.9-41,76.4-71.6,107c-30.6,30.6-67.5,55.1-107.8,71.4
		c-40.3,16.5-83.7,24.7-127.1,24.5c-43.4-0.4-86.6-9.1-126.7-25.6c-20-8.3-39.1-18.5-57.1-30.4c-18-11.9-34.9-25.6-50.3-40.6
		c-30.8-30.2-55.8-66.4-72.7-106.1c-2-5-4.1-10-5.9-15c-1.7-5.2-3.5-10.2-5.2-15.4c-1.5-5.2-3.2-10.4-4.5-15.6
		c-1.3-5.2-2.6-10.6-3.7-15.8c-4.5-21.1-6.7-42.8-6.9-64.4c-0.4-43.2,8-86.8,24.9-126.7c8.3-20,18.7-39.1,31-57.1
		s26.2-34.7,41.7-49.9c31-30.4,68.1-54.7,108.3-71.2c40.3-16.5,83.8-24.9,127.2-24.9c43.4,0.2,87,8.5,127.2,25s77.2,41,107.8,71.6
		c30.6,30.6,55.3,67.1,71.6,107C723.3,341.2,731.8,384.3,731.8,427.3z M731.1,427.3c0-21.5-2.2-43-6.7-64
		c-4.5-21-10.9-41.5-19.5-61.2c-17.1-39.3-42.3-74.9-73.1-104.4c-31-29.5-67.3-52.9-107-68.6c-19.8-7.8-40.3-13.9-61.2-17.8
		c-21-4.1-42.1-5.9-63.4-5.9c-21.3,0-42.5,2-63.4,6.1c-20.8,4.1-41.4,10-61,18c-39.5,15.8-75.9,39.3-106.3,69
		c-30.6,29.7-55.3,65.3-72.2,104.4c-8.3,19.7-14.8,40.1-19.3,60.8c-4.5,21-6.7,42.3-6.9,63.6c-0.2,42.7,8,85.7,24.7,125
		c8.3,19.7,18.5,38.6,30.6,56.4c12.1,17.8,26.2,34.1,41.4,49c15.4,14.8,32.3,28.4,50.3,39.9s37.1,21.3,56.9,29.1
		c39.7,15.8,82.5,23.6,125,23.2c21.3-0.2,42.7-2.2,63.4-6.3c21-4.1,41.4-10.2,61.2-18c2.6-0.9,5-2,7.4-3.2l7.2-3.2
		c2.4-1.1,4.8-2.2,7.2-3.5l7.2-3.5c2.4-1.1,4.6-2.4,7-3.7l7-3.9c2.4-1.3,4.6-2.8,6.9-4.1l6.9-4.3c17.8-11.5,34.9-24.7,50.3-39.5
		c31-29.5,56-65.1,73.1-104.4c8.5-19.7,15-40.3,19.5-61.2C728.8,470.3,730.9,448.8,731.1,427.3z"/>
</g>
<path class="st7" d="M645.5,233.5c8,9.1,18,21.7,27.6,37.8c3.5,5.8,16.1,27.1,26.2,58.1c5.2,16,10.6,37.1,13,62.5
	c0.6,4.8-1.1,11.5-4.6,14.8c-3.5,3.3-8.2,5-12.8,6.5c-14.8,5-29.7,9.8-44.5,14.8c-2.8,15-7.6,29.7-14.3,43.4
	c-8.5,5.4-20.4-1.7-23.9-11.3c-3.5-9.6-0.9-20,1.5-29.7c-7.4-6.5-19.5-3.9-27.3,2.2S573,447.3,565.8,454s-17.8,11.5-26.9,7.4
	c-13.7-6.1-12.6-25.4-16.1-39.9c-5.6-23.9-27.6-40.3-49.7-51c-4.3-2-9.1-4.8-9.3-9.5c-0.4-4.8,4.6-8.2,8.9-10.2
	c16-7.6,33.4-12.1,51-13.2c11.7-0.7,24.1,0,34.1-6.1c7.4-4.6,12.4-12.2,17.1-19.7c11.5-18.4,23.6-39.3,18.9-60.5
	c-1.5-6.7-3.7-15.6,2.2-18.9c2.2-1.1,4.8-1.1,7.2-0.9C614.2,232.5,635.2,230.3,645.5,233.5z"/>
<path class="st8" d="M396.4,636c-2,4.5,3.9,9.1,8.7,7.8s7.6-5.8,10-10c0.6-0.9,1.1-2,0.9-3.2c-0.2-1.1-1.3-2-2.4-2.6
	c-3.9-2-8.7-2-12.2,0.4s-5.2,7.4-3.5,11.5"/>
<path class="st8" d="M481,203.3c-4.8-3.5-1-7.4,1-11.4c1.9-3.9-1.9-8.6-10.6-9c-2.9,0-5.8,0.4-8.7,0.8c-19.2,3.5-37.5,11-36.5,20
	c1,8.6,27.9,16.1,45.2,11c1-6.7,1-13.7,1.9-20.4"/>
<path class="st7" d="M392.7,334.7c2.2-10.8,0.7-23.2-7.2-31c-2.8-2.8-6.3-4.8-9.3-7.6c-8.7-8.7-8.3-22.8-7.6-35.1
	c1.3-18,2.6-36,3.9-54c0.4-6.5,0.9-13,3.3-18.9c1.5-3.7,3.7-7.2,4.6-11.1c2.4-11.1-7-21-15.4-28.6c-6.3,15.4-18,28.4-32.5,36.5
	c-13.5,7.6-29.5,11.1-40.3,22.1c-7.6,7.6-11.5,18-17.6,26.9c-13.5,19.3-37.7,29.7-61.2,28.9c-19.7-0.6-38.6-8.5-54.2-20.8l-3.2-7.2
	c-7.2-0.6-8.5-7-15.8-7.6c-6.9,24.5-21.3,49.5-32.6,72.3c-4.3,8.9-9.3,17.4-13,26.7c-8,20.4-8.9,42.7-8.7,64.5
	c0.2,29.1,2,59.2,14.8,85.3c4.8,10,11.3,19.3,15.8,29.5c6.7,15,8.7,31.5,13.4,47.3c5,17.3,12.8,33.8,23.2,48.4
	c10,14.3,23,28.6,23.9,46c24.3,2.6,46.4,21,53.2,44.5c1.3,4.5,2.2,9.3,5.8,12.1c3.3,2.8,8,3,12.4,3.2c18,0.9,35.8,4.8,52.5,11.7
	c23.2,9.3,42.7,29.7,65.7,27.5c2.8,0.7,5.8,1.1,8.7,0.6l-16.1-36.5l-68.6-160.4c1.5-2.2,3-4.5,4.6-6.5c7.6-8.9,19.1-15,30.6-13.4
	c5.6,26.3,11.1,52.5,16.7,78.8c13-1.7,26-3.2,38.8-4.8c2.4-0.4,5.2-0.7,6.7-2.8c1.7-2.2,0.9-5.4,0-8.2
	c-8.7-26.7-18.7-54.5-14.1-82.4c1.5-9.1,4.6-18,4.5-27.3c0-8.3-2.8-16.3-4.8-24.5c-7.6-30.8-5-64,7-93.3
	C385.1,355.3,390.5,345.5,392.7,334.7z"/>
<path class="st7" d="M729.4,423.2c-8.2,9.6-16.5,19.7-20.8,31.5c-2.4,6.3-3.5,13.2-6.5,19.3c-5.4,11.1-15.8,18.9-25.6,26.2
	c-10.6,7.6-21.1,15.4-33,20.8c-5.8,2.6-11.9,4.6-18.2,5.9c-16,3.5-33.6,2.4-47.1-6.7c-12.6-8.3-24.7-19.3-39.5-16.7
	c-7.6,8.5-9.3,21.1-7,32.3c2.2,11.1,8,21.3,13.5,31.3c3.7,6.5,7.4,13.2,10.9,19.7c2,3.5,3.9,7.2,4.3,11.1c0.4,4.8-1.9,9.3-4.1,13.5
	c-8.7,16.9-18.2,34.3-19.7,53.2c-1.5,18.9,7.4,40.3,25.2,46.7c16.1-4.3,27.8-16.9,37.8-30.2c6.5-8.7,11.3-18.9,19.5-26.2
	c9.3-8.2,22.3-11.7,31-20.4c10-9.8,13.2-24.7,21-36.2c4.5-6.5,10.4-12.1,15.4-18.2c7-8.5,12.2-18.2,16.7-28.2
	c12.2-28.8,16.5-60.3,20.8-91.3C725.9,446,727.3,438.2,729.4,423.2z"/>
<path class="st8" d="M382.4,663.3c-1.6,3.2,3,6.5,6.6,5.5c3.7-0.9,5.8-4.1,7.6-7.1c0.4-0.7,0.8-1.4,0.7-2.2c-0.1-0.8-1-1.4-1.8-1.8
	c-3-1.4-6.6-1.4-9.3,0.3c-2.7,1.7-4,5.3-2.7,8.2"/>
<path class="st8" d="M396.6,698.9c-1.5,3.6,2.8,7.4,6.4,6.3s5.6-4.7,7.3-8.1c0.4-0.8,0.8-1.7,0.7-2.6c-0.1-0.9-0.9-1.7-1.8-2.1
	c-2.8-1.7-6.4-1.7-9,0.3s-3.8,6-2.6,9.3"/>
<path class="st9" d="M288.1,280.4"/>
<path class="st10" d="M789.3,84.6h-95.9c-1.5,0-2.7,1.1-2.7,2.6v10.4l-34.2,8.1v6.2l34.2,2.2v11.3c0,1.4,1.2,2.6,2.7,2.6h95.9
	c1.5,0,2.7-1.1,2.7-2.6V87.2C792,85.7,790.7,84.6,789.3,84.6z"/>
<path class="st10" d="M654.7,72.1H635c-1.2,0-2.2,0.7-2.6,1.8c-0.3-1.1-1.3-2-2.6-2h-19.7c-1.5,0-2.7,1.1-2.7,2.6v30.8L574,97.4V87
	c0-1.4-1.2-2.6-2.7-2.6h-95.9c-1.5,0-2.7,1.1-2.7,2.6v38.2c0,1.4,1.2,2.6,2.7,2.6h95.9c1.5,0,2.7-1.1,2.7-2.6v-11.3l33.3-2.1v47.3
	c0,1.4,1.2,2.6,2.7,2.6h19.7c1.2,0,2.2-0.7,2.6-1.8c0.3,1.1,1.3,2,2.6,2h19.7c1.5,0,2.7-1.1,2.7-2.6V74.7
	C657.4,73.3,656.2,72.1,654.7,72.1z"/>
<path class="st10" d="M30.7,765.3"/>
<g>
	<path class="st10" d="M127.6,761.3H36.5c-3.2,0-5.8,4.1-5.8,9.1v1.3c0,5,2.6,9.1,5.8,9.1h91.1c3.2,0,5.8-4.1,5.8-9.1v-1.3
		C133.4,765.4,130.8,761.3,127.6,761.3z"/>
	<path class="st10" d="M320.2,763.4h-91.1c-3.2,0-5.8,4.1-5.8,9.1v1.3c0,5,2.6,9.1,5.8,9.1h91.1c3.2,0,5.8-4.1,5.8-9.1v-1.3
		C326,767.5,323.4,763.4,320.2,763.4z"/>
	<path class="st10" d="M197.6,725h-38.9c-3.2,0-5.8,4.1-5.8,9.1v67c0,5,2.6,9.1,5.8,9.1h38.9c3.2,0,5.8-4.1,5.8-9.1v-67
		C203.4,729.1,200.8,725,197.6,725z"/>
</g>
<path class="st10" d="M542.5,1119.4"/>
<polyline class="st11" points="133.4,770.5 161.7,771.1 197.2,771.1 227.3,771.1 "/>
<path class="st12" d="M175.6,781.8"/>
<path class="st12" d="M628.7,119.6"/>
<path class="st13" d="M634.2,95.8c-24-13.5-58.8-30.5-102.7-44c-51.8-16-164-50.5-280.7-5.5C153,83.9,100.4,158.8,82,185.7
	c-86,125.9-113.2,323.9-11,471.4C144.3,763,252.7,797.4,280.2,805.7C390,838.8,482.7,813,581,785.5c81.9-22.9,124.3-34.7,161.4-75.2
	c50.9-55.5,53.8-123.2,58.7-238.5c4.9-115.3,8.2-192.3-44-262.3L634.2,95.8z"/>
</svg>
