<?xml version="1.0" encoding="utf-8"?>
<!-- Generator: Adobe Illustrator 24.3.0, SVG Export Plug-In . SVG Version: 6.00 Build 0)  -->
<svg version="1.1" id="Layer_1" xmlns="http://www.w3.org/2000/svg" xmlns:xlink="http://www.w3.org/1999/xlink" x="0px" y="0px"
	 viewBox="0 0 841.9 841.9" style="enable-background:new 0 0 841.9 841.9;" xml:space="preserve">
<style type="text/css">
	.st0{fill:#414042;}
	.st1{fill:#04CEB4;stroke:#231F20;stroke-width:4;stroke-miterlimit:10;}
	.st2{fill:#B2E1C4;stroke:#231F20;stroke-width:4;stroke-miterlimit:10;}
	.st3{fill:#04CEB4;stroke:#000000;stroke-width:4;stroke-miterlimit:10;}
	.st4{fill:#00FF00;stroke:#231F20;stroke-width:4;stroke-miterlimit:10;}
	.st5{fill:#F0FFDD;}
	.st6{fill:none;}
	.st7{opacity:0.8;stroke:#000000;stroke-width:2;stroke-miterlimit:10;}
	.st8{fill:#333333;stroke:#000000;stroke-width:4;stroke-miterlimit:10;}
	.st9{fill:#8EC7A0;}
	.st10{fill:#FFFC13;stroke:#000000;stroke-miterlimit:10;}
	.st11{fill:#FBD315;stroke:#000000;stroke-miterlimit:10;}
	.st12{fill:#FFFE67;stroke:#000000;stroke-miterlimit:10;}
	.st13{fill:#000002;stroke:#000000;stroke-width:2;stroke-miterlimit:10;}
	.st14{fill:#FFFFFF;stroke:#2E3690;stroke-width:4;stroke-miterlimit:10;}
	.st15{fill:#2A3C90;stroke:#2A3C90;stroke-miterlimit:10;}
	.st16{fill:#2E3690;stroke:#2A3C90;stroke-miterlimit:10;}
	.st17{fill:#2E3690;stroke:#2E3690;stroke-miterlimit:10;}
	.st18{fill:#FCEE21;stroke:#FCEE21;stroke-width:4;stroke-miterlimit:10;}
</style>
<image style="display:none;overflow:visible;enable-background:new    ;" width="450" height="950" xlink:href="../../../../Downloads/254137875_571096570663065_1327983642435274809_n.jpg"  transform="matrix(1 0 0 1 267.25 -76.125)">
</image>
<path d="M861.3,146.3"/>
<g>
	<g>
		<path class="st0" d="M-537,208.4c3.2,0,3.2-5,0-5S-540.2,208.4-537,208.4L-537,208.4z"/>
	</g>
</g>
<g>
	<g>
		<path class="st0" d="M-537,208.4c3.2,0,3.2-5,0-5S-540.2,208.4-537,208.4L-537,208.4z"/>
	</g>
</g>
<path class="st1" d="M419.7,187.8c0.4,0.2,0.7,0.5,1,0.8c0.6,1-0.5,2-1.3,2.8c-2.5,2.4-2.5,6.5-2.4,10.1c0,1.5,0.1,3,0.8,4.4
	c0.9,1.8,2.8,2.9,4.4,4.2c2.4,1.9,4.6,4.2,6.2,6.8c0.4,0.7,0.9,1.6,0.4,2.3c-0.4,0.6-1.4,0.5-2.1,0.4c-4.1-0.7-8.7-0.6-11.5,2.1
	c-1.7,1.6-3.2,4.4-5.7,3.9c-1.7-0.3-2.8-2-3.2-3.6c-0.5-1.6-0.5-3.3-1.1-4.9c-0.6-1.6-2.1-3.1-3.7-3c-0.5,1.6-1,3.2-2.3,4.2
	c-1.3,1-3.6,0.8-4.4-0.8c0.2-2.5,0.8-5,1.6-7.3c-1.7-2.1-3.4-4.2-5.1-6.4c-0.5-0.7-1.1-1.3-1.3-2.1c-0.2-0.8,0.1-1.9,0.6-2.5
	c2.5-3.2,5.1-5.6,7.2-7.3c4.1-3.3,7.7-4.9,8.7-5.4c2.8-1.3,5.3-2,7.2-2.5C415.3,184.5,418.1,186.8,419.7,187.8z"/>
<path class="st2" d="M407.6,270.5c0.6-0.4,0.8-1.2,0.5-1.9s-1-1.1-1.7-1.2c-0.2,0-0.4,0-0.6,0.1c-0.1,0.1-0.1,0.3-0.1,0.5
	c0,0.8,0,1.7,0.6,2.3c0.6,0.6,1.8,0.6,1.9-0.2"/>
<path class="st3" d="M433,229.5c-0.8,5.2-3.2,10-6.9,13.5c-1,0.9-2.1,1.7-2.8,2.9c-0.8,1.3-1.1,2.8-1.7,4.2
	c-1.7,4.3-5.5,7.1-9.1,9.9c-0.4,0.3-0.7,0.6-0.7,1.1c0,0.4,0.4,0.7,0.7,1c1.7,1.5,3.4,3,5.2,4.5c3-3.1,6.1-6.1,9.1-9.2
	c1.8,0.9,2.9,2.9,3.3,4.8c0.1,0.4,0.1,0.9,0.1,1.3l-23.6,15.2l-5.4,3.4c0.4,0.4,0.8,0.6,1.3,0.8c3.1,2.6,7.7,1.7,11.8,2.7
	c3,0.7,5.9,1.9,8.6,3.5c0.7,0.4,1.3,0.8,2.1,0.8c0.7,0,1.3-0.6,1.9-1.1c3-2.6,7.7-2.9,11.5-0.9c1.6-2.3,4.7-3,7.4-4
	c2.7-1,5.3-2.5,7.5-4.4c2-1.7,3.7-3.8,6-5.2c1.5-1,3.2-1.6,4.8-2.5c4.1-2.3,6.9-6.3,9.4-10.2c1.9-3,3.7-6.1,4.3-9.7
	c0.3-1.6,0.3-3.3,0.4-4.9c0.3-4.2,0.4-9.1,1.5-13.1c-1.1-0.6-1.8,0.1-2.9-0.5l-1.1,0.7c-3.3,0.2-6.7-0.6-9.6-2.5
	c5.2,3.3-4,20.5-6.3-9.9c-0.1-1.8,0.2-3.6-0.2-5.4c-0.6-2.5-2.6-4.6-3.9-7c-1.4-2.5-2-5.4-1.6-8.2c-1.9,0.2-4.1,0.6-4.7,2.4
	c-0.2,0.6-0.2,1.3-0.3,2c-0.2,1-0.6,2-1.1,2.9c-1.3,2.6-2.7,5.2-4,7.8c-0.9,1.7-2.1,3.7-4.1,4.1c-0.7,0.1-1.3,0-2,0.1
	c-1.8,0.3-3.1,1.8-3.7,3.5C433.3,225.8,433.2,227.7,433,229.5z"/>
<path class="st4" d="M488.3,278.5c-2,4.7-4.1,9.4-4.8,14.5c-0.2,1.8-0.3,3.6,0,5.5c0.2,1.3,0.6,2.7,0.7,4c0.1,2.3-0.7,4.7-0.1,7
	c0.5,2,2.1,3.8,2.7,5.8c0.6,1.8,0.4,3.7,0.6,5.5c0.3,2.8,0.9,5.7,2.9,7.8c3.1,0.9,6.2-1.2,7.6-3.9c1.4-2.7,1.5-6,1.7-9.2
	c0-0.8,0.1-1.6,0.6-2.3c0.4-0.5,1-0.8,1.6-1.1c1.1-0.5,2.2-1.1,3.3-1.6c1.7-0.8,3.4-1.7,4.6-3c1.3-1.3,2.1-3.2,1.7-5.1
	c-1.9-1.8-4.6-1.5-7.1-1.6c-2.7-0.1-5.4-1.7-7.4-3.7c-0.8-0.8-1.5-1.7-2.1-2.6c-1.2-1.9-2.1-4-3-6.1c-0.8-2-1.6-4-1.5-6.1
	c0.1-1.1,0.5-2.2,0.7-3.3c0.4-2,0.1-4.2-0.3-6.3C489.7,275.1,489.3,276.3,488.3,278.5z"/>
<path class="st2" d="M384.6,216.9c0.4-0.3,0.6-0.9,0.3-1.4c-0.2-0.5-0.8-0.9-1.3-0.9c-0.2,0-0.3,0-0.4,0.1c-0.1,0.1-0.1,0.2-0.1,0.4
	c0,0.6,0,1.2,0.5,1.7c0.4,0.5,1.4,0.5,1.4-0.1"/>
<path class="st2" d="M544.7,282.7c0.6-0.5,0.9-1.4,0.6-2.2s-1-1.2-1.8-1.3c-0.2,0-0.5,0-0.6,0.2c-0.1,0.2-0.2,0.4-0.2,0.6
	c-0.1,0.9-0.1,1.9,0.5,2.6s1.9,0.6,2.1-0.3"/>
<path class="st5" d="M475.8,294.8"/>
<path class="st5" d="M542.5,1119.4"/>
<path class="st6" d="M862.1,144.6"/>
<path class="st7" d="M479.4,521.4l31.2,4.5c5.1-5.8,14.5-15.7,27.7-26.1c37.2-29.1,76.8-39.4,137.1-54.4c11.3-2.8,28.4-6.9,49.7-11
	l33.4-59.6l-24.7-54.8l-123.7,5.7l-69.9,52.4L479.4,521.4z"/>
<path class="st8" d="M46.6,562.3"/>
<polygon class="st9" points="185.9,342.3 153.2,356.5 184.5,392.6 195.4,369.5 207,357.9 190.6,337.5 "/>
<path class="st10" d="M173.3,362.7c-7.9-2.5-17-6.1-19.3-14.1c-0.3-1.1-0.5-2.2-1.1-3.2c-2.7-4-9.5-0.4-13.6-3
	c-3.4-2.1-3-7.1-5-10.6c-1.8-3.2-5.6-4.9-7.3-8.1c-1.8-3.5-0.7-8.1-2.5-11.6c-2-3.8-6.6-5.1-10.7-6.4c-8.4-2.7-16.3-6.7-23.3-11.9
	c-4-3-9.2-6.5-13.6-4c-3.7,2.2-4,7.3-3.9,11.5c0.1,5.8,0.4,11.8,3.1,16.8c1,1.9,2.4,3.6,3.2,5.6c1.1,2.5,1.3,5.5,2.9,7.7
	c1.4,1.9,3.5,3,5.2,4.5c1.9,1.7,3.3,4,4.8,6.1c4.8,6.5,11.7,11.3,17.7,16.8c6,5.5,11.4,12.4,12,20.6l27.9,69.5l5.6,3.6l20.9-6.6
	c-1.7,8,1.3,17.4,3.9,25.2c1.7,5.3,3.5,10.6,5.2,15.9c1.6,4.8,3.2,9.7,6.1,13.9c5.6,8,15.2,12,24.3,15.6c6.9,2.7,15.1,5.4,21.4,1.6
	c4.2-2.6,6.6-8,5.5-12.8c-1.4-6.4-7.6-10.9-8.5-17.4c-0.3-2.2,0.1-4.4-0.5-6.5c-1-3.3-4.1-5.6-5.9-8.5c-3.7-5.8-2.1-13.5-4.8-19.8
	c-1.8-4.1-5.2-7.4-6.4-11.7c-1.2-4.5,0.2-9.7-2.3-13.6c-2.1-3.1-6-4.3-8.7-6.9c-5.6-5.3-4.3-14.2-4.6-21.8
	c-0.5-10.8-5.2-21.4-12.9-29.1C182.8,364.8,180.4,360.9,173.3,362.7z"/>
<path class="st11" d="M36.2,444.2c1.5,3.1,2,6.5,2.6,9.9s1.4,6.9,3.4,9.6c2.1,2.7,5.7,4.6,9,3.5c1.3-0.4,2.6-1.3,4-1.3
	c2.5,0.1,3.8,2.9,4.3,5.3c1,5.5,0.3,11.2,0.9,16.8c0.4,3.7,1.5,7.3,2.6,10.9c0.2,0.7,0.5,1.5,1,2.1c0.9,1.1,2.5,1.3,3.9,1.4
	c-0.5-3.4,1.1-7,4-9c1.4,4.8,2.1,9.8,2,14.8c2.2-0.8,4.8-0.1,6.6,1.4c1.8,1.5,3.1,3.6,3.9,5.8c1.1,2.8,2,6.1,4.7,7.4
	c1.2,0.6,2.5,0.7,3.7,1.4c1.2,0.6,2.1,2.1,1.4,3.2c1.1,0.2,1.7-1.2,2-2.3c1.3-5.7,2.8-11.4,4.6-17c2.4-7.3,5.3-14.6,10.5-20.2
	c0.3-0.4,0.7-0.7,0.9-1.2c0.6-1.3-0.4-2.8-1.1-4c-3.6-5.6-4.6-12.4-6.2-18.9c-2.7-11-7.2-21.6-13.2-31.1c-1.3-2-2.7-4.1-4.9-5.1
	c-2.7-1.2-5.9-0.4-8.9-0.6c-2.4-0.2-4.8-1-7.2-1.5c-2.3-0.5-4.6-0.6-6.9-0.5c-9.1,0.2-17.9,3.3-27,3.5c-2.2,0-4.6,0-6.5,1.2
	c-1.9,1.2-2.8,3.6-2.9,5.9c-0.1,2.8,0.6,6.1,0.8,8.9C30.7,444.6,33.5,444.3,36.2,444.2z"/>
<path class="st12" d="M24.6,438.2l-0.7-10.9l5.4-5.4l22.5,1.4l9.5-4.1l32-18.4l28.6-17l20.4-17.7l4.8,9.5l16.3,19.1l8.2,0.7
	l13.6,12.9L175,420.5L143,462l-23.1,32l-15.7,26.5v6.1c-4.8-9.3-9.9-19-14.7-28.2c-3.7-7.1-7.4-14.3-9.8-21.9
	c-0.6-2.1-1.2-4.3-2.7-5.9c-2.1-2.4-5.6-3-7.8-5.3c-3.3-3.5-2.7-9.7-6.7-12.4c-2.5-1.7-5.8-1.1-8.8-1.3c-3-0.1-6.6-1.6-6.8-4.6
	c-0.2-3.2,3.6-6.7,1.4-9.1c-0.6-0.6-1.4-0.9-2.2-1.1c-5-1.4-10.3-1.9-15.5-1.4c-0.5-1.3-4.2-3.3-5.3-2.5
	C25.3,434.3,24.6,436.9,24.6,438.2z"/>
<path class="st1" d="M379.7,228.1c0.4,0.2,0.7,0.5,1,0.8c0.6,1-0.5,2-1.3,2.8c-2.5,2.4-2.5,6.5-2.4,10.1c0,1.5,0.1,3,0.8,4.4
	c0.9,1.8,2.8,2.9,4.4,4.2c2.4,1.9,4.6,4.2,6.2,6.8c0.4,0.7,0.9,1.6,0.4,2.3c-0.4,0.6-1.4,0.5-2.1,0.4c-4.1-0.7-8.7-0.6-11.5,2.1
	c-1.7,1.6-3.2,4.4-5.7,3.9c-1.7-0.3-2.8-2-3.2-3.6c-0.5-1.6-0.5-3.3-1.1-4.9c-0.6-1.6-2.1-3.1-3.7-3c-0.5,1.6-1,3.2-2.3,4.2
	c-1.3,1-3.6,0.8-4.4-0.8c0.2-2.5,0.8-5,1.6-7.3c-1.7-2.1-3.4-4.2-5.1-6.4c-0.5-0.7-1.1-1.3-1.3-2.1s0.1-1.9,0.6-2.5
	c2.5-3.2,5.1-5.6,7.2-7.3c4.1-3.3,7.7-4.9,8.7-5.4c2.8-1.3,5.3-2,7.2-2.5C375.2,224.8,378,227.2,379.7,228.1z"/>
<path class="st13" d="M437.5,177.9c20.8,4.7,32.3,21.5,33.6,23.3c10.7,16.1,8.7,33.3,7.4,44.9c-2.7,23.7-14.3,40.6-21,48.9
	l-13.9,8.9l-0.4,11.8l-16.8,254.5c12.7-6.1,25.4-12.1,38.1-18.2l6.4-0.2l-0.2-10c0.8-9,2.5-22.4,6.3-38.3
	c2.1-8.8,7.1-27.3,27.4-70.3c14.3-30.3,22.2-47.1,36.7-70c9.5-15,23.5-36.9,46.2-61.3c13.5-14.5,26.2-25.7,32-30.8
	c10.6-9.3,20.9-17.6,30.9-25l-8.4-198.8l-218.3-6.7l-10.5,1.5l-218.3,6.7l-8.4,198.8c10,7.4,20.4,15.8,30.9,25
	c5.8,5.1,18.5,16.3,32,30.8c22.8,24.4,36.8,46.3,46.2,61.3c14.5,22.9,22.4,39.7,36.7,70c20.3,43,25.3,61.5,27.4,70.3
	c3.9,15.9,5.5,29.2,6.3,38.3l-0.2,10l6.4,0.2c12.7,6.1,25.4,12.1,38.1,18.2l-16.8-254.5l-0.4-11.8c-9.6-3.1-16.7-7.3-21.3-10.5
	c-4.7-3.2-10-6.9-15.1-13.5c-1.4-1.9-5.5-7.4-8.7-16.9c-3.1-9.2-9.5-28.6-1.1-49c9.9-23.9,31.2-35.9,35.7-37.3
	c9.5-3,27.4-6.3,32.9-6.1"/>
<path class="st14" d="M830.6,510.1c35.7,46-11.9,103.6-93.6,145.7c-81.7,42.1-171.7,35.8-201.1-13.9
	c-29.3-49.7,17.3-120.5,102.8-155.6C725.8,450.6,797.3,467.3,830.6,510.1z"/>
<path class="st15" d="M541.3,640.1c4.4-11.8,12-28.5,25.3-46.1c25-33,55-49.5,81.3-63.5c55-29.4,108.3-39.5,109.2-37.4
	c0.5,1.5-22.6,8.6-62.6,28.7c-25.1,12.6-41.4,20.8-61.3,34.8c-23.8,16.8-54.3,39-70.6,77.2c-3.5,8.2-5.5,15.3-6.6,19.9l-3.8,4.3
	l-15.6-13.5L541.3,640.1z"/>
<polygon class="st15" points="661.2,557.9 626.6,533.1 617.5,529.8 617.9,525.4 623.6,523.2 634,526.3 643.9,531.3 660.5,543 
	671.9,553.4 672.3,559.4 670.1,561 661.9,561.2 "/>
<polygon class="st16" points="696.8,536.8 662.1,511.9 653.1,508.7 653.5,504.3 659.2,502.1 669.5,505.3 679.5,510.2 696.1,521.9 
	707.5,532.3 707.9,538.3 705.7,540 697.5,540.2 "/>
<polygon class="st17" points="679,546.4 644.4,521.4 635.3,518.2 635.7,513.8 641.4,511.6 651.7,514.8 661.7,519.7 678.3,531.4 
	689.7,541.8 690.1,547.8 687.9,549.5 679.7,549.7 "/>
<path class="st18" d="M536,626.3c2.1,0.4,5.8-3.3,12.9-20.1l1.1-21.5c7.5-12.1,8.1-14.9,7.5-15.4c-1.7-1.1-15.4,9.6-21.5,25.2
	C530.4,608.8,532,625.5,536,626.3z"/>
<path class="st18" d="M577.3,663.1c9.5,2.7,21.8,5.4,36.3,6.6c18.2,1.5,32.6,0.1,39.5-0.7c28-3.5,47.6-12.7,65.7-21.2
	c4.6-2.2,26.8-12.7,52.4-31.8c8.7-6.4,15.6-12.4,20.7-16.8l2.8-4c-8.5,5.7-20.8,13.6-35.9,21.9c-15.7,8.6-31.7,17.4-54.4,25.2
	c-26.3,9-46.3,11.5-50.8,12c-3.1,0.3-21.2,2.4-43.8-0.3c-12.8-1.5-21.3-3.9-28.5-9.8c-4.1-3.4-6.6-7-8.2-9.5l10.9-21.9l30.5-32.9
	l25.8-22.3l6.6-4.7l3.9-2.9l-4.7-3.3L598.3,584l-23.8,28.5l-11.4,19l-7.2,22.4L577.3,663.1z"/>
<path class="st14" d="M633.2,706.6"/>
</svg>
