<?xml version="1.0" encoding="utf-8"?>
<!-- Generator: Adobe Illustrator 24.3.0, SVG Export Plug-In . SVG Version: 6.00 Build 0)  -->
<svg version="1.1" id="Layer_1" xmlns="http://www.w3.org/2000/svg" xmlns:xlink="http://www.w3.org/1999/xlink" x="0px" y="0px"
	 viewBox="0 0 200 200" style="enable-background:new 0 0 200 200;" xml:space="preserve">
<style type="text/css">
	.st0{fill:#FFFFFF;stroke:#000000;stroke-miterlimit:10;}
	.st1{fill:#000080;}
	.st2{fill:#787457;}
</style>
<rect x="1" y="1" class="st0" width="197" height="200"/>
<path class="st1" d="M69.5,112.7h28.7l6.8-26.5c1.9,0.1,4.6,0.2,7.9,0c7.2-0.5,16.9-1.1,23.8-7.3c7.5-6.6,8.2-16.4,8.3-19.8v-5.9
	c-0.3,0.4-0.8,1.1-1.3,2c-2.2,3.6-2.2,5.5-3.3,7.3c-1.6,2.8-4.3,3.9-7.8,5.4c-4,1.7-7.7,2-10.3,2l-46.3,1c-0.7,0-1.6,0.1-2.8,0.2
	c-10.6,1.4-17.8,7.6-20.1,9.8C45.3,88,42.5,96.1,41.3,99.8c-1.9,5.7-2.3,10.8-2.3,14.2c0.6-2.3,1.7-5.4,3.5-8.8
	c1.2-2.2,3.1-5.8,6.8-9.5c5.5-5.5,11.6-8,14.9-9c6.3-2,11.8-2,15.1-1.7L69.5,112.7z"/>
<path class="st1" d="M83.8,133.8c2.8-0.3,6.7-0.5,11.3,0c3.4,0.4,10.8,1.2,18.8,5.6c7.3,4,11.5,9,13.9,11.7
	c6.2,7.4,9.1,15.1,10.6,20.3c0.1-1.7,0.2-4.2,0-7.1c-0.2-3.2-1.2-13.5-7.6-24.7c-5.7-10-13-16.1-17.4-19.3l-15.1-4.4h-29
	c-0.3,1.6-0.9,3.8-1.8,6.4c-1.5,4.2-3.1,8.9-7.1,13.2c-4.3,4.7-9.3,6.7-13.9,8.6c-1.2,0.5-4.8,1.9-8.8,2.7
	c-11.2,2.1-21.4-2-26.2-4.4c1.1,1.2,2.8,2.8,5,4.4c7,5.1,14.2,6.2,19.6,7.1c5.6,0.9,11.4,1.8,18.6,0c6.9-1.7,11.8-4.9,14.6-7.1
	l10.1-8.8L83.8,133.8z"/>
<ellipse class="st1" cx="95.7" cy="56.6" rx="10.3" ry="10.9"/>
<polygon class="st2" points="109.2,53.3 173.4,13.3 184.8,36.1 109.2,56.6 "/>
<path class="st2" d="M134.1,49.8l1.2,1.6c0.5,0.9,1.1,1.4,1.6,1.8c3.1,2.2,8.6,1.2,13.9-2.3l1.6-2.1v-4l-2.4,0.5
	c0.2,0.5,0.5,1.4,0.1,2.3c-0.1,0.2-0.4,1-2.1,2.1c-0.9,0.6-2.2,1.4-4.2,1.8c-1,0.2-2.7,0.6-4.7,0.1c-0.9-0.2-1.6-0.5-2-0.7l-0.9-1.7
	L134.1,49.8z"/>
<polygon class="st2" points="191,36.3 187.6,37.7 175,9.2 178.3,7.8 "/>
<polygon class="st1" points="183,13.3 186.4,3.7 188,3.7 "/>
<polyline class="st1" points="194.7,9.7 184.4,18 192.9,9 "/>
<polyline class="st1" points="199.3,16.1 185.1,21.4 196.8,14.7 "/>
<polyline class="st1" points="199.3,30.6 190.1,27.6 198.7,28.9 "/>
<polyline class="st1" points="200,24.8 187.1,24 198.8,22.9 "/>
</svg>
