<?xml version="1.0" encoding="utf-8"?>
<!-- Generator: Adobe Illustrator 24.3.0, SVG Export Plug-In . SVG Version: 6.00 Build 0)  -->
<svg version="1.1" id="Layer_1" xmlns="http://www.w3.org/2000/svg" xmlns:xlink="http://www.w3.org/1999/xlink" x="0px" y="0px"
	 viewBox="0 0 841.9 841.9" style="enable-background:new 0 0 841.9 841.9;" xml:space="preserve">
<style type="text/css">
	.st0{fill:#C6FFFF;stroke:#000000;stroke-width:2;stroke-miterlimit:10;}
	.st1{opacity:0.8;fill:#FFFFFF;stroke:#000000;stroke-width:2;stroke-miterlimit:10;}
	.st2{fill:#414042;}
	.st3{fill:#F0FFDD;}
	.st4{fill:#FFFFFF;stroke:#000000;stroke-miterlimit:10;}
	.st5{fill:#33069E;stroke:#000000;stroke-miterlimit:10;}
	.st6{font-family:'DemosNextPro-Heavy';}
	.st7{font-size:101px;}
	.st8{fill:#C0C0C0;stroke:#000000;stroke-width:2;stroke-miterlimit:10;}
	.st9{fill:#160656;stroke:#000000;stroke-width:2;stroke-miterlimit:10;}
	.st10{opacity:0.9;fill:#202021;stroke:#000000;stroke-width:2;stroke-miterlimit:10;}
	.st11{opacity:0.8;fill:#33069E;stroke:#000000;stroke-width:2;stroke-miterlimit:10;}
	.st12{fill:#1F097C;stroke:#000000;stroke-width:2;stroke-miterlimit:10;}
	.st13{fill:#1F066D;stroke:#000000;stroke-width:2;stroke-miterlimit:10;}
	.st14{fill:#FFFFFF;stroke:#000000;stroke-width:2;stroke-miterlimit:10;}
	.st15{fill:#33069E;stroke:#000000;stroke-width:2;stroke-miterlimit:10;}
	.st16{font-size:93.9171px;}
	.st17{opacity:0.9;fill:#111111;stroke:#000000;stroke-width:2;stroke-miterlimit:10;}
</style>
<image style="display:none;overflow:visible;enable-background:new    ;" width="450" height="950" xlink:href="../../../../../Downloads/254137875_571096570663065_1327983642435274809_n.jpg"  transform="matrix(1 0 0 1 267.25 -76.125)">
</image>
<rect x="1.9" y="-0.5" class="st0" width="840.6" height="842"/>
<polyline class="st1" points="139.6,510 269.4,471.3 142.2,412.2 6.4,468.4 "/>
<g>
	<g>
		<path class="st2" d="M-537,208.4c3.2,0,3.2-5,0-5S-540.2,208.4-537,208.4L-537,208.4z"/>
	</g>
</g>
<g>
	<g>
		<path class="st2" d="M-537,208.4c3.2,0,3.2-5,0-5S-540.2,208.4-537,208.4L-537,208.4z"/>
	</g>
</g>
<path class="st3" d="M542.5,1119.4"/>
<path class="st4" d="M323.6,666.3"/>
<path class="st4" d="M267.1,675.4"/>
<path class="st4" d="M267.1,470.7"/>
<text transform="matrix(0.9792 0 0 1 5.2974 355.8282)" class="st5 st6 st7">LEVEL</text>
<path class="st4" d="M573.9,423.5"/>
<line class="st8" x1="524" y1="176.3" x2="534.2" y2="581.5"/>
<path class="st4" d="M281,698"/>
<rect x="109.4" y="373.7" class="st9" width="32" height="58"/>
<path class="st8" d="M128.8,390.4c3.9,0.9,6.1,4.2,6.3,4.6c2,3.2,1.6,6.5,1.4,8.8c-0.5,4.7-2.7,8-3.9,9.6l-2.6,1.7l-0.1,2.3
	l-3.2,49.9c2.4-1.2,4.8-2.4,7.2-3.6l1.2,0l0-2c0.2-1.8,0.5-4.4,1.2-7.5c0.4-1.7,1.3-5.4,5.1-13.8c2.7-5.9,4.2-9.2,6.9-13.7
	c1.8-2.9,4.4-7.2,8.7-12c2.5-2.8,4.9-5,6-6c2-1.8,3.9-3.5,5.8-4.9l-2.5-28l-38.2-4.6l-6.8-0.2l-38.7,5.9l-1,27.2
	c1.9,1.5,3.8,3.1,5.8,4.9c1.1,1,3.5,3.2,6,6c4.3,4.8,6.9,9.1,8.7,12c2.7,4.5,4.2,7.8,6.9,13.7c3.8,8.4,4.7,12.1,5.1,13.8
	c0.7,3.1,1,5.7,1.2,7.5l0,2l1.2,0c2.4,1.2,4.8,2.4,7.2,3.6l-3.2-49.9l-0.1-2.3c-1.8-0.6-3.1-1.4-4-2.1c-0.9-0.6-1.9-1.4-2.8-2.6
	c-0.3-0.4-1-1.5-1.6-3.3c-0.6-1.8-1.8-5.6-0.2-9.6c1.9-4.7,5.9-7,6.7-7.3c1.8-0.6,5.1-1.2,6.2-1.2"/>
<polygon class="st10" points="137.4,732.2 370.2,845.6 522.9,778.2 267,673.6 "/>
<polygon class="st10" points="427.1,635.1 841.1,809.8 841.1,775.4 549.6,580.1 "/>
<polyline class="st11" points="549.8,580.6 428.6,638.6 430.4,226.3 540.2,176.3 418.3,134.4 291,185.1 417.4,225.3 540.2,176.3 "/>
<polyline class="st11" points="291.6,589.9 429.7,640.6 430.7,227.3 292.1,187.1 "/>
<polygon class="st12" points="6.6,678.1 6.6,465.9 139.8,513.4 139.8,730.3 "/>
<polygon class="st13" points="561.6,417 561.6,670.7 691.6,718.4 694.7,454 "/>
<polyline class="st9" points="821.2,659.9 691.6,718.4 694.7,454 822.6,409 822.6,667.6 "/>
<polygon class="st14" points="560.4,415 691.1,372.3 823.2,408.1 692,452.6 "/>
<rect x="680.6" y="349.5" class="st9" width="28.8" height="52.3"/>
<path class="st8" d="M700.4,358.6c3.5,0.8,5.5,3.8,5.7,4.1c1.8,2.8,1.5,5.9,1.3,7.9c-0.5,4.2-2.4,7.2-3.6,8.6l-2.4,1.6l-0.1,2.1
	l-2.8,45c2.2-1.1,4.3-2.1,6.5-3.2l1.1,0l0-1.8c0.1-1.6,0.4-4,1.1-6.8c0.4-1.6,1.2-4.8,4.6-12.4c2.4-5.4,3.7-8.3,6.2-12.4
	c1.6-2.7,4-6.5,7.8-10.8c2.3-2.6,4.4-4.5,5.4-5.4c1.8-1.6,3.5-3.1,5.2-4.4l-2.2-25.2l-34.4-4.2l-6.1-0.2l-34.8,5.3l-0.9,24.5
	c1.7,1.3,3.4,2.8,5.2,4.4c1,0.9,3.1,2.9,5.4,5.4c3.9,4.3,6.2,8.2,7.8,10.8c2.5,4,3.8,7,6.2,12.4c3.4,7.6,4.3,10.9,4.6,12.4
	c0.7,2.8,0.9,5.2,1.1,6.8l0,1.8l1.1,0c2.2,1.1,4.3,2.1,6.5,3.2l-2.8-45l-0.1-2.1c-1.6-0.5-2.8-1.3-3.6-1.9c-0.8-0.6-1.7-1.2-2.5-2.4
	c-0.2-0.3-0.9-1.3-1.5-3c-0.5-1.6-1.6-5.1-0.2-8.7c1.7-4.2,5.3-6.3,6-6.6c1.6-0.5,4.6-1.1,5.6-1.1"/>
<text transform="matrix(0.9792 0 0 1 557.9693 324.1391)" class="st15 st6 st16">NEWS</text>
<polyline class="st17" points="845.2,782.3 843.9,686 816.3,661.3 691.6,718.4 "/>
<path class="st0" d="M439.1,260"/>
<polygon class="st13" points="268.8,672.3 269,469.7 139.8,513.4 139.8,730.3 "/>
<polyline class="st9" points="548.8,580.8 430.1,638.3 431.7,226.8 541.8,176.5 552,562.5 "/>
<text transform="matrix(0.9792 0 0 1 352.224 111.9633)" class="st15 st6 st7">UP</text>
<polygon class="st14" points="418.4,233.9 291.7,182.7 418.4,131.6 534.8,174.2 "/>
<rect x="403" y="129.5" class="st9" width="28.8" height="52.3"/>
<path class="st8" d="M422.8,142.9c3.5,0.8,5.5,3.8,5.7,4.1c1.8,2.8,1.5,5.9,1.3,7.9c-0.5,4.2-2.4,7.2-3.6,8.6l-2.4,1.6l-0.1,2.1
	l-2.8,45c2.2-1.1,4.3-2.1,6.5-3.2l1.1,0l0-1.8c0.1-1.6,0.4-4,1.1-6.8c0.4-1.6,1.2-4.8,4.6-12.4c2.4-5.4,3.7-8.3,6.2-12.4
	c1.6-2.7,4-6.5,7.8-10.8c2.3-2.6,4.4-4.5,5.4-5.4c1.8-1.6,3.5-3.1,5.2-4.4l-2.2-25.2l-34.4-4.2l-6.1-0.2l-34.8,5.3l-0.9,24.5
	c1.7,1.3,3.4,2.8,5.2,4.4c1,0.9,3.1,2.9,5.4,5.4c3.9,4.3,6.2,8.2,7.8,10.8c2.5,4,3.8,7,6.2,12.4c3.4,7.6,4.3,10.9,4.6,12.4
	c0.7,2.8,0.9,5.2,1.1,6.8l0,1.8l1.1,0c2.2,1.1,4.3,2.1,6.5,3.2l-2.8-45l-0.1-2.1c-1.6-0.5-2.8-1.3-3.6-1.9c-0.8-0.6-1.7-1.2-2.5-2.4
	c-0.2-0.3-0.9-1.3-1.5-3c-0.5-1.6-1.6-5.1-0.2-8.7c1.7-4.2,5.3-6.3,6-6.6c1.6-0.5,4.6-1.1,5.6-1.1"/>
</svg>
