<?xml version="1.0" encoding="utf-8"?>
<!-- Generator: Adobe Illustrator 24.3.0, SVG Export Plug-In . SVG Version: 6.00 Build 0)  -->
<svg version="1.1" id="Layer_1" xmlns="http://www.w3.org/2000/svg" xmlns:xlink="http://www.w3.org/1999/xlink" x="0px" y="0px"
	 viewBox="0 0 841.9 841.9" style="enable-background:new 0 0 841.9 841.9;" xml:space="preserve">
<style type="text/css">
	.st0{fill:#3D2F90;}
	.st1{fill:none;}
	.st2{opacity:0.8;fill:#FFFFFF;stroke:#010101;stroke-width:2;stroke-miterlimit:10;enable-background:new    ;}
	.st3{fill:#FFFFFF;stroke:#010101;stroke-miterlimit:10;}
	.st4{opacity:0.8;fill:#3E2F90;stroke:#010101;stroke-width:2;stroke-miterlimit:10;enable-background:new    ;}
	.st5{fill:#2B2974;stroke:#010101;stroke-width:2;stroke-miterlimit:10;}
	.st6{fill:#CDEBF2;stroke:#010101;stroke-width:2;stroke-miterlimit:10;}
	.st7{fill:#272368;stroke:#010101;stroke-width:2;stroke-miterlimit:10;}
	.st8{fill:#1F1954;stroke:#010101;stroke-width:2;stroke-miterlimit:10;}
	.st9{fill:#FFFFFF;stroke:#010101;stroke-width:3;stroke-miterlimit:10;enable-background:new    ;}
	.st10{fill:#FFFFFF;stroke:#2F398F;stroke-width:4;stroke-miterlimit:10;}
	.st11{fill:#293E90;stroke:#293E90;stroke-miterlimit:10;}
	.st12{fill:#2F398F;stroke:#293E90;stroke-miterlimit:10;}
	.st13{fill:#2F398F;stroke:#2F398F;stroke-miterlimit:10;}
	.st14{fill:#CDEBF2;stroke:#CDEBF2;stroke-width:4;stroke-miterlimit:10;}
</style>
<g>
	<path class="st0" d="M125.3,429.1c-42.9,0-77.7,35.3-77.7,78.7s34.8,78.7,77.7,78.7s77.7-35.3,77.7-78.7S168.2,429.1,125.3,429.1z
		 M133.1,455.1l10.5-7.5c14.1,4.4,26.2,13.9,34,26.3l-3,10.6l-10.5,3.6l-31-22V455.1z M107,447.6l10.5,7.5v11l-31,22L76,484.4
		l-3-10.6C80.9,461.5,92.9,452.1,107,447.6z M87.1,548.1l-8.9,0.8c-9.4-11-15.1-25.4-15.1-41c0-0.9,0.1-1.8,0.2-2.8l7.8-5.7
		l10.7,3.8l11.3,34.2L87.1,548.1z M144.7,567.6c-6.1,2-12.7,3.2-19.4,3.2c-6.8,0-13.3-1.2-19.4-3.2l-5.4-11.7l5-8.7h39.7l5,8.7
		L144.7,567.6z M142.9,531.5h-35.3l-10.5-31.7l28.1-20l28.2,20L142.9,531.5z M172.4,548.9l-8.9-0.8l-6.1-10.8l11.3-34.2l10.8-3.7
		l7.8,5.7c0.1,0.9,0.2,1.7,0.2,2.7C187.5,523.5,181.8,537.8,172.4,548.9z"/>
</g>
<g>
	<rect x="462" y="-162.8" class="st1" width="397.5" height="397.5"/>
</g>
<polyline class="st2" points="136,655.8 241.3,619.9 134.4,585.5 27.1,626.7 "/>
<path class="st3" d="M368.2,676.5"/>
<path class="st3" d="M329.6,684.2"/>
<path class="st3" d="M244,537.8"/>
<path class="st3" d="M526.1,362.8"/>
<path class="st3" d="M361.5,704.3"/>
<polyline class="st4" points="521.4,720.7 389.1,763.1 391.1,461.4 522.1,424.9 391.1,394.1 254.1,431.3 390.1,460.7 522.1,424.9 
	"/>
<polyline class="st4" points="255.3,432.8 391.3,462.2 390.3,764.6 254.8,727.5 "/>
<polygon class="st5" points="28.5,794.2 28.5,628.1 135,656.3 135,837.9 "/>
<path class="st6" d="M387.8,462.2"/>
<polygon class="st7" points="243,789.4 243.2,619.7 135,656.3 135,837.9 "/>
<polyline class="st8" points="520.4,720.8 390.8,762.9 392.5,461.8 521.9,425 521.9,707.4 "/>
<path class="st3" d="M795.6,298"/>
<polyline class="st4" points="811.1,621.9 676.9,679.4 678.9,270.3 811.8,220.8 678.9,179.1 539.9,229.4 677.9,269.3 811.8,220.8 
	"/>
<polyline class="st4" points="541.2,231.4 679.1,271.3 678.1,681.4 540.6,631.1 "/>
<path class="st6" d="M675.6,271.3"/>
<polyline class="st8" points="810.1,622.1 678.6,679.2 680.3,270.8 811.6,220.9 811.6,603.9 "/>
<polygon class="st9" points="386.2,461.5 514.2,424.3 393.1,391.5 255.2,433.1 "/>
<polygon class="st9" points="672.8,271.8 810.7,221.3 680.2,176.9 531.6,233.3 "/>
<g>
	<g>
		<path class="st0" d="M600.9,33.5c-26.6,26.6-21.2,75.1,12,108.4c18.2,18.2,43.9,28.6,62,28.8c17.9,0.2,44.2-3,62.4,15.3l48.1,48.1
			l16.1-16.1l-48.1-48.1c-18.3-18.3-15.1-44.5-15.3-62.4c-0.2-17.9-10.7-43.8-28.8-62C676,12.4,627.5,6.9,600.9,33.5z M704.9,137.8
			c-18.1,18.1-54.4,12.4-79.3-12.5S595,64.2,613.1,46c18.1-18.1,54.4-12.4,79.3,12.5S722.9,119.6,704.9,137.8z"/>
		<g>
			<rect x="564.4" y="163.2" class="st1" width="61.2" height="61.2"/>
		</g>
		<g>
			<g>
				<g>
					<path class="st0" d="M571.7,164.3c-3,4.2-4.7,9.4-4.7,14.9c0,5.6,1.7,10.7,4.7,14.9c6.3-2,10.9-7.9,10.9-14.9
						C582.6,172.3,578,166.3,571.7,164.3z"/>
				</g>
				<g>
					<path class="st0" d="M614.4,164.3c-6.3,2-10.9,7.9-10.9,14.9c0,7,4.6,12.9,10.9,14.9c3-4.2,4.7-9.4,4.7-14.9
						C619.1,173.7,617.4,168.6,614.4,164.3z"/>
				</g>
				<g>
					<path class="st0" d="M598.3,179.3c0-8.6,5.1-15.9,12.5-19.1c-4.6-4.3-10.9-7-17.7-7s-13.1,2.7-17.7,7
						c7.4,3.2,12.5,10.6,12.5,19.1c0,8.6-5.1,15.9-12.5,19.1c4.6,4.3,10.9,7,17.7,7s13.1-2.7,17.7-7
						C603.4,195.1,598.3,187.8,598.3,179.3z"/>
				</g>
			</g>
		</g>
	</g>
	<path class="st10" d="M481,293.9c25.1,32.7-8.4,73.6-65.8,103.5c-57.5,29.9-120.8,25.5-141.4-9.9s12.2-85.6,72.3-110.5
		C407.3,251.6,457.6,263.5,481,293.9z"/>
	<path class="st11" d="M277.6,386.3c3.1-8.4,8.5-20.2,17.8-32.7c17.6-23.5,38.7-35.1,57.1-45.1c38.7-20.9,76.2-28.1,76.8-26.5
		c0.4,1-15.9,6.1-44,20.4c-17.6,8.9-29.1,14.8-43.1,24.7c-16.7,11.9-38.2,27.7-49.6,54.8c-2.5,5.9-3.9,10.9-4.7,14.2l-2.6,3l-11-9.6
		L277.6,386.3z"/>
	<polygon class="st11" points="361.9,327.9 337.6,310.3 331.2,307.9 331.5,304.8 335.4,303.3 342.8,305.5 349.7,309 361.4,317.3 
		369.4,324.7 369.7,329 368.2,330.1 362.4,330.3 	"/>
	<polygon class="st12" points="386.9,312.9 362.5,295.2 356.2,293 356.5,289.9 360.5,288.3 367.7,290.5 374.8,294 386.4,302.3 
		394.4,309.7 394.7,314 393.2,315.2 387.4,315.3 	"/>
	<polygon class="st13" points="374.4,319.7 350.1,302 343.7,299.7 344,296.6 347.9,295 355.2,297.3 362.3,300.8 373.9,309.1 
		381.9,316.4 382.2,320.7 380.7,321.9 374.9,322.1 	"/>
	<path class="st14" d="M275.1,373.9c1.5,0.3,4.1-2.4,9.1-14.3l0.8-15.3c5.2-8.6,5.7-10.6,5.2-10.9c-1.2-0.8-10.9,6.8-15.1,17.9
		C271.2,361.4,272.3,373.4,275.1,373.9z"/>
	<path class="st14" d="M302.9,402.7c6.7,1.9,15.3,3.8,25.6,4.7c12.8,1.1,22.9,0.1,27.8-0.5c19.7-2.5,33.5-9,46.2-15.1
		c3.3-1.6,18.8-9,36.8-22.6c6.1-4.6,11-8.8,14.5-11.9l1.9-2.8c-6,4.1-14.6,9.6-25.3,15.6c-11.1,6.1-22.3,12.4-38.3,17.9
		c-18.5,6.4-32.6,8.2-35.8,8.5c-2.2,0.2-14.9,1.7-30.8-0.2c-9-1.1-15-2.8-20.1-7c-2.9-2.4-4.7-5-5.8-6.8l7.7-15.6l21.4-23.4
		l18.1-15.8l4.7-3.4l2.7-2.1l-3.3-2.3l-33.5,26.5l-16.8,20.3l-8,13.5l-5.1,15.9L302.9,402.7z"/>
</g>
</svg>
